<svg version="1.1" xmlns="http://www.w3.org/2000/svg" viewBox="0 0 424.7106104789523 444.4220747722756" width="1274.1318314368568" height="1333.2662243168268" filter="invert(93%) hue-rotate(180deg)">
  <!-- svg-source:excalidraw -->
  
  <defs>
    <style class="style-fonts">
      
    </style>
    
  </defs>
  <g stroke-linecap="round"><g transform="translate(335.7860839960513 157.827774340732) rotate(0 38.284440236762975 41.57882246172889)" fill-rule="evenodd"><path d="M-0.41 0.9 C-0.08 13.08, 2.49 59.06, 2.59 72.94 C2.7 86.83, 0.05 81.83, 0.21 84.19 C0.38 86.55, 0.85 85.82, 3.58 87.1 C6.31 88.39, 10.5 91.06, 16.58 91.88 C22.67 92.7, 32.19 92.38, 40.09 92.04 C47.99 91.7, 58.2 91.04, 63.98 89.84 C69.77 88.63, 72.92 85.78, 74.8 84.79 C76.68 83.8, 75.32 85.31, 75.26 83.88 C75.2 82.44, 74.01 88.74, 74.44 76.19 C74.88 63.65, 77.61 21.42, 77.86 8.63 C78.11 -4.17, 77.08 1.54, 75.93 -0.57 C74.77 -2.69, 73.32 -3.05, 70.93 -4.04 C68.54 -5.03, 66.92 -5.52, 61.59 -6.5 C56.25 -7.47, 45.83 -9.95, 38.92 -9.88 C32.01 -9.81, 25.7 -7.01, 20.12 -6.1 C14.54 -5.18, 8.59 -5.7, 5.46 -4.37 C2.33 -3.03, 2.65 1.54, 1.34 1.93 C0.04 2.31, -2.01 -1.82, -2.36 -2.07" stroke="none" stroke-width="0" fill="#12b886" fill-rule="evenodd"></path><path d="M0.76 -0.33 C0.75 11.84, -0.36 60.06, -0.33 73.87 C-0.31 87.69, 0.13 80.5, 0.92 82.55 C1.71 84.6, 1.51 84.74, 4.42 86.17 C7.34 87.59, 12.28 90.34, 18.41 91.12 C24.54 91.91, 33.88 91.2, 41.21 90.87 C48.53 90.55, 56.8 89.81, 62.37 89.16 C67.94 88.51, 72.41 87.91, 74.63 86.97 C76.85 86.04, 75.25 85.38, 75.7 83.55 C76.15 81.71, 77.38 88.87, 77.33 75.97 C77.28 63.08, 75.53 18.91, 75.41 6.19 C75.29 -6.53, 77.29 1.23, 76.61 -0.34 C75.93 -1.91, 73.88 -2.34, 71.33 -3.22 C68.79 -4.1, 66.88 -4.7, 61.34 -5.61 C55.8 -6.52, 45.26 -8.58, 38.12 -8.65 C30.98 -8.73, 24.3 -6.96, 18.51 -6.07 C12.72 -5.18, 6.44 -4.11, 3.39 -3.3 C0.34 -2.48, 0.82 -1.62, 0.2 -1.2 C-0.42 -0.78, -0.19 -0.84, -0.34 -0.78 M-0.3 -1.55 C0.11 10.68, 1.91 60.77, 2.07 74.94 C2.23 89.11, 0.16 81.5, 0.63 83.48 C1.11 85.47, 2.14 86.03, 4.92 86.85 C7.71 87.67, 11.63 87.92, 17.33 88.4 C23.04 88.89, 31.6 89.26, 39.16 89.74 C46.72 90.22, 56.98 91.72, 62.71 91.3 C68.44 90.89, 71.12 88.7, 73.55 87.25 C75.99 85.8, 77.12 84.56, 77.33 82.62 C77.54 80.68, 75.17 88.18, 74.82 75.6 C74.46 63.02, 75.09 19.86, 75.2 7.13 C75.32 -5.6, 76.1 1.01, 75.51 -0.79 C74.93 -2.59, 74.12 -2.85, 71.69 -3.65 C69.26 -4.44, 67.02 -4.55, 60.96 -5.55 C54.89 -6.54, 42.19 -9.19, 35.31 -9.62 C28.44 -10.04, 25.24 -9.25, 19.72 -8.08 C14.2 -6.91, 5.63 -3.71, 2.19 -2.6 C-1.26 -1.49, -0.89 -1.71, -0.96 -1.44 C-1.03 -1.16, 1.7 -1.27, 1.76 -0.93" stroke="#0a11d3" stroke-width="1" fill="none"></path></g></g><mask></mask><g stroke-linecap="round"><g transform="translate(336.383335460288 214.55864956328423) rotate(0 38.36563945407056 3.865452948463485)"><path d="M-0.59 -0.9 C-0.22 -0.4, 0.96 1.6, 2.93 2.66 C4.9 3.72, 7.86 4.39, 11.22 5.44 C14.58 6.5, 18.15 8.6, 23.09 9.01 C28.04 9.43, 34.56 8.34, 40.9 7.95 C47.24 7.56, 55.62 7.31, 61.14 6.69 C66.66 6.07, 71.53 5.24, 74.02 4.21 C76.5 3.17, 75.48 1.22, 76.05 0.48 M1.31 1.24 C1.52 1.91, 0.89 2.96, 2.46 3.81 C4.03 4.66, 7.15 5.81, 10.7 6.34 C14.25 6.88, 18.92 6.69, 23.74 7.01 C28.56 7.32, 33.21 8.51, 39.63 8.25 C46.05 8, 56.41 6.27, 62.24 5.47 C68.08 4.68, 71.93 4.29, 74.61 3.48 C77.29 2.67, 78.07 1.43, 78.33 0.6" stroke="#0a11d3" stroke-width="1" fill="none"></path></g></g><mask></mask><g stroke-linecap="round"><g transform="translate(335.4329787200277 185.8203733162607) rotate(0 38.36563945407056 3.865452948463485)"><path d="M0.91 -0.73 C1.42 -0.15, 0.73 1.26, 2.5 2.6 C4.26 3.93, 8.12 6.42, 11.49 7.29 C14.86 8.15, 17.98 7.71, 22.72 7.79 C27.46 7.88, 33.45 7.72, 39.93 7.79 C46.41 7.86, 56.05 8.85, 61.63 8.2 C67.21 7.55, 70.79 5.31, 73.43 3.9 C76.06 2.5, 77.07 0.49, 77.45 -0.24 M-0.07 1.49 C0.38 2.29, -0.07 3.05, 1.8 3.72 C3.67 4.38, 7.56 4.65, 11.12 5.5 C14.69 6.34, 18.06 8.39, 23.17 8.81 C28.29 9.22, 35.18 8.17, 41.81 8 C48.45 7.83, 57.68 8.61, 62.99 7.78 C68.31 6.95, 71.41 4.39, 73.71 3.01 C76.02 1.63, 76.23 0.32, 76.8 -0.5" stroke="#0a11d3" stroke-width="1" fill="none"></path></g></g><mask></mask><g stroke-linecap="round" transform="translate(334.4590910302186 150.85508100884527) rotate(0 38.08005659218884 7.701404957741232)"><path d="M37.72 0.18 C45.46 0.13, 55.98 1.04, 62.21 2.13 C68.44 3.21, 73.58 5.06, 75.11 6.69 C76.64 8.33, 75.37 10.52, 71.38 11.94 C67.39 13.35, 58.79 14.77, 51.19 15.2 C43.59 15.62, 33.51 15.1, 25.79 14.48 C18.06 13.86, 9.05 12.75, 4.85 11.45 C0.66 10.16, -0.77 8.24, 0.6 6.72 C1.97 5.19, 6.38 3.45, 13.08 2.31 C19.78 1.16, 35.82 0.2, 40.8 -0.17 C45.77 -0.53, 42.95 0.04, 42.94 0.12 M40.68 -0.22 C48.4 -0.27, 58.35 0.63, 64.31 1.8 C70.27 2.97, 75.4 5.03, 76.42 6.82 C77.44 8.61, 74.96 11.05, 70.45 12.54 C65.95 14.04, 57.25 15.42, 49.39 15.79 C41.53 16.15, 30.92 15.57, 23.31 14.72 C15.7 13.87, 7.4 12.09, 3.73 10.68 C0.05 9.26, -0.76 7.84, 1.25 6.23 C3.27 4.63, 9.22 2.2, 15.82 1.04 C22.42 -0.12, 36.86 -0.62, 40.86 -0.72 C44.87 -0.81, 39.88 0.22, 39.83 0.46" stroke="none" stroke-width="0" fill="#fff"></path><path d="M43.97 -0.15 C51.6 -0.03, 61.23 1.37, 66.68 2.61 C72.13 3.85, 76.42 5.58, 76.64 7.28 C76.87 8.99, 73.24 11.59, 68.04 12.85 C62.83 14.11, 53.48 14.53, 45.41 14.84 C37.33 15.15, 26.73 15.4, 19.58 14.69 C12.43 13.97, 5.38 12.1, 2.51 10.56 C-0.36 9.02, -0.3 6.96, 2.39 5.45 C5.08 3.94, 11.62 2.38, 18.67 1.52 C25.73 0.66, 40.13 0.46, 44.71 0.27 C49.3 0.08, 46.25 0.24, 46.18 0.36 M28.59 -0.29 C36.07 -0.69, 47.73 -0.11, 55.1 0.76 C62.47 1.62, 69.43 3.45, 72.81 4.87 C76.18 6.3, 77.61 7.71, 75.36 9.3 C73.11 10.88, 66.23 13.36, 59.31 14.38 C52.38 15.4, 42.01 15.53, 33.83 15.4 C25.65 15.27, 15.91 14.73, 10.25 13.58 C4.59 12.43, 0.29 10.23, -0.14 8.51 C-0.57 6.79, 2.81 4.69, 7.68 3.25 C12.54 1.82, 25.52 0.33, 29.05 -0.09 C32.58 -0.51, 28.82 0.54, 28.86 0.74" stroke="#0a11d3" stroke-width="1" fill="none"></path></g><g stroke-linecap="round" transform="translate(396.59420735943377 172.20910264377392) rotate(0 5.58099732236974 6.057090563339187)"><path d="M5.41 0.37 C6.48 0.31, 7.72 0.92, 8.69 1.75 C9.66 2.58, 10.95 4.1, 11.21 5.35 C11.46 6.61, 10.76 8.3, 10.22 9.28 C9.68 10.26, 9.13 10.84, 7.98 11.23 C6.83 11.62, 4.52 11.92, 3.34 11.62 C2.15 11.33, 1.46 10.47, 0.87 9.45 C0.29 8.44, -0.39 6.92, -0.18 5.56 C0.02 4.2, 1.21 2.24, 2.12 1.3 C3.04 0.35, 4.6 0.16, 5.3 -0.11 C5.99 -0.37, 6.22 -0.47, 6.3 -0.31 M5.72 -0.28 C6.86 -0.33, 8.69 0.44, 9.66 1.42 C10.63 2.4, 11.38 4.19, 11.55 5.58 C11.73 6.97, 11.34 8.74, 10.7 9.75 C10.06 10.77, 8.96 11.41, 7.73 11.66 C6.5 11.92, 4.45 11.64, 3.34 11.26 C2.22 10.89, 1.48 10.53, 1.03 9.42 C0.58 8.3, 0.39 6.01, 0.66 4.56 C0.93 3.11, 1.89 1.44, 2.66 0.72 C3.42 0.01, 4.66 0.41, 5.24 0.29 C5.82 0.18, 6.06 0.11, 6.13 0.06" stroke="none" stroke-width="0" fill="#fff"></path><path d="M5.89 -0.02 C7.12 0, 9.05 0.49, 9.99 1.46 C10.92 2.43, 11.46 4.52, 11.5 5.79 C11.54 7.05, 10.98 8.01, 10.24 9.07 C9.49 10.13, 8.2 11.71, 7.03 12.15 C5.86 12.58, 4.27 12.2, 3.24 11.67 C2.21 11.13, 1.33 10.03, 0.85 8.91 C0.38 7.79, 0.19 6.23, 0.38 4.95 C0.58 3.68, 0.97 2.07, 2.03 1.26 C3.09 0.45, 5.96 0.26, 6.75 0.12 C7.54 -0.03, 6.92 0.31, 6.77 0.37 M4.87 0.04 C6.03 -0.1, 7.19 0.55, 8.31 1.13 C9.42 1.7, 11.14 2.27, 11.57 3.5 C11.99 4.72, 11.42 7.16, 10.86 8.48 C10.3 9.79, 9.3 10.7, 8.2 11.38 C7.09 12.06, 5.41 12.76, 4.21 12.56 C3.02 12.36, 1.69 11.27, 1.04 10.19 C0.39 9.12, 0.26 7.48, 0.31 6.08 C0.37 4.68, 0.71 2.74, 1.38 1.8 C2.05 0.86, 3.9 0.69, 4.34 0.45 C4.78 0.2, 3.89 0.15, 4.04 0.31" stroke="#0a11d3" stroke-width="1" fill="none"></path></g><g stroke-linecap="round" transform="translate(396.59420735943377 198.7997074372522) rotate(0 5.58099732236974 6.057090563339187)"><path d="M5.66 0.42 C6.84 0.46, 8.8 1.32, 9.68 2.22 C10.55 3.12, 10.76 4.68, 10.9 5.81 C11.05 6.95, 11.27 8.06, 10.55 9.05 C9.84 10.04, 7.81 11.29, 6.6 11.75 C5.39 12.21, 4.36 12.28, 3.3 11.83 C2.24 11.38, 0.75 10.33, 0.27 9.07 C-0.22 7.82, 0.1 5.65, 0.39 4.3 C0.68 2.96, 0.94 1.77, 1.99 0.99 C3.03 0.2, 5.92 -0.31, 6.69 -0.39 C7.45 -0.48, 6.66 0.25, 6.58 0.48 M5.69 0.05 C6.86 0.03, 8.39 0.89, 9.32 1.76 C10.24 2.63, 11 4.13, 11.25 5.27 C11.5 6.41, 11.43 7.64, 10.8 8.61 C10.18 9.58, 8.58 10.47, 7.5 11.07 C6.43 11.66, 5.33 12.52, 4.34 12.17 C3.35 11.83, 2.16 10.22, 1.56 8.98 C0.96 7.74, 0.76 5.9, 0.73 4.74 C0.7 3.58, 0.55 2.82, 1.39 2.02 C2.22 1.23, 5.11 0.37, 5.75 -0.05 C6.4 -0.46, 5.43 -0.63, 5.26 -0.48" stroke="none" stroke-width="0" fill="#fff"></path><path d="M5.39 -0.24 C6.6 -0.41, 8.06 0.59, 8.99 1.28 C9.92 1.96, 10.7 2.63, 10.98 3.87 C11.27 5.1, 11.16 7.39, 10.68 8.68 C10.2 9.96, 9.1 10.97, 8.09 11.56 C7.09 12.15, 5.76 12.45, 4.64 12.21 C3.51 11.97, 2.15 11.17, 1.33 10.12 C0.5 9.06, -0.39 7.23, -0.31 5.88 C-0.23 4.52, 0.91 2.93, 1.81 1.97 C2.71 1.01, 4.58 0.45, 5.09 0.12 C5.59 -0.21, 4.91 -0.05, 4.87 -0.01 M4.5 0.36 C5.7 -0.01, 8.04 -0.39, 9.1 0.26 C10.17 0.91, 10.63 2.96, 10.89 4.28 C11.16 5.6, 11.18 6.93, 10.71 8.19 C10.23 9.45, 9.08 11.18, 8.03 11.86 C6.97 12.55, 5.44 12.63, 4.37 12.32 C3.3 12.02, 2.33 11.14, 1.61 10.04 C0.88 8.94, 0.13 6.98, 0.03 5.73 C-0.08 4.48, 0.32 3.44, 0.97 2.52 C1.63 1.6, 3.28 0.47, 3.96 0.2 C4.65 -0.06, 4.96 0.86, 5.09 0.93" stroke="#0a11d3" stroke-width="1" fill="none"></path></g><g stroke-linecap="round" transform="translate(396.59420735943377 227.7001617347641) rotate(0 5.58099732236974 6.057090563339216)"><path d="M6.75 0.55 C7.91 0.68, 8.85 1.64, 9.65 2.49 C10.46 3.34, 11.61 4.41, 11.56 5.63 C11.52 6.86, 10.23 8.72, 9.4 9.84 C8.57 10.95, 7.73 12, 6.58 12.32 C5.42 12.63, 3.5 12.47, 2.49 11.73 C1.48 10.99, 0.94 9.21, 0.52 7.89 C0.1 6.57, -0.5 5.08, -0.04 3.82 C0.41 2.56, 2.09 0.91, 3.25 0.34 C4.41 -0.22, 6.31 0.38, 6.93 0.43 C7.55 0.48, 7.05 0.59, 6.99 0.67 M5.54 0.66 C6.62 0.58, 8.08 1.17, 9.01 1.79 C9.95 2.41, 10.94 3.34, 11.15 4.38 C11.36 5.43, 10.76 6.83, 10.27 8.07 C9.79 9.31, 9.15 11.25, 8.23 11.81 C7.31 12.37, 5.84 11.91, 4.76 11.42 C3.68 10.92, 2.57 9.76, 1.73 8.84 C0.89 7.91, -0.35 7.05, -0.27 5.86 C-0.19 4.68, 1.3 2.82, 2.21 1.74 C3.11 0.66, 4.75 -0.37, 5.16 -0.59 C5.57 -0.82, 4.76 0.24, 4.66 0.39" stroke="none" stroke-width="0" fill="#fff"></path><path d="M5.84 0.3 C6.9 0.18, 8.28 0.11, 9.15 0.92 C10.01 1.73, 10.81 3.78, 11.02 5.14 C11.24 6.5, 10.97 7.95, 10.45 9.08 C9.93 10.22, 8.98 11.44, 7.9 11.96 C6.83 12.48, 5.21 12.65, 3.98 12.21 C2.74 11.77, 1.08 10.5, 0.48 9.33 C-0.12 8.15, 0.15 6.45, 0.38 5.16 C0.61 3.88, 1.08 2.48, 1.87 1.59 C2.67 0.71, 4.55 0.15, 5.15 -0.14 C5.75 -0.43, 5.44 -0.31, 5.46 -0.16 M6.23 -0.56 C7.39 -0.65, 8.39 0.72, 9.18 1.65 C9.96 2.57, 10.79 3.65, 10.95 4.97 C11.11 6.3, 10.72 8.4, 10.12 9.57 C9.52 10.75, 8.34 11.64, 7.33 12.03 C6.32 12.41, 5.14 12.41, 4.05 11.88 C2.96 11.35, 1.53 9.91, 0.81 8.84 C0.09 7.77, -0.35 6.66, -0.27 5.45 C-0.19 4.24, 0.24 2.37, 1.28 1.58 C2.31 0.79, 5.25 0.98, 5.95 0.72 C6.65 0.47, 5.57 0.06, 5.48 0.04" stroke="#0a11d3" stroke-width="1" fill="none"></path></g><g stroke-opacity="0.8" fill-opacity="0.8" stroke-linecap="round" transform="translate(187.90322099339028 230.24752444331529) rotate(0 37.5 35.416666666666515)"><path d="M4.95 17.56 C4.95 17.56, 4.95 17.56, 4.95 17.56 M4.95 17.56 C4.95 17.56, 4.95 17.56, 4.95 17.56 M4.26 28.64 C10.01 20.56, 17.53 17.88, 26.41 0.6 M2.36 33.64 C6.61 26.77, 13.63 21.45, 26.26 1.26 M0.94 40.05 C15.78 29.21, 34.72 13.86, 38.59 2.71 M3.14 42.98 C13.7 31.26, 24.57 17.66, 39.38 0.95 M4.14 52.5 C22.46 36.43, 33.08 14.59, 49.96 3.04 M6.41 50.25 C19.7 39.54, 28.26 23.31, 48.86 2.34 M11.59 58.68 C25.21 45.62, 33.9 30.2, 56.72 6.32 M11.27 58.67 C26.52 39.97, 43.56 20.12, 56.01 4.47 M19.3 63.58 C39.27 43, 54.52 19.52, 64.07 11.37 M18.15 64.27 C27.89 50.91, 41.06 35.35, 65.15 9.96 M23.03 67.78 C32.54 57.29, 49.9 45.16, 65.64 16.06 M25.13 68.19 C33.72 57.2, 44.2 45.61, 69.97 19.06 M34.21 67.16 C40.62 62.56, 51.83 50.78, 72.69 27.09 M30.96 69.43 C40.29 60.78, 47.72 54.41, 73.75 24.34 M42.57 65.63 C49.3 61.57, 55.8 55.58, 72.85 38.21 M44.65 70.54 C51.72 60.49, 61.08 54.71, 75.14 37.97" stroke="#ffffff" stroke-width="1" fill="none"></path><path d="M46.32 -1.16 C53.23 -0.57, 60.97 5.06, 65.67 10.46 C70.37 15.86, 73.98 24.54, 74.5 31.24 C75.03 37.93, 72.04 44.7, 68.83 50.62 C65.62 56.54, 61.84 63.42, 55.25 66.76 C48.66 70.1, 36.5 71.56, 29.28 70.65 C22.07 69.73, 16.61 66.54, 11.97 61.28 C7.34 56.02, 2.62 46.41, 1.48 39.09 C0.33 31.77, 1.87 23.15, 5.12 17.37 C8.36 11.59, 11.77 6.08, 20.95 4.42 C30.14 2.76, 51.83 4.76, 60.23 7.4 C68.63 10.03, 71.77 19.62, 71.36 20.25 M22.93 3.6 C29.7 1.39, 42.56 1.27, 49.94 2.94 C57.32 4.61, 62.56 7.96, 67.21 13.61 C71.85 19.27, 77.31 29.78, 77.83 36.88 C78.34 43.98, 74.76 50.89, 70.33 56.21 C65.89 61.53, 58.37 66.65, 51.23 68.8 C44.09 70.95, 35.14 71.36, 27.48 69.11 C19.82 66.86, 9.84 61.2, 5.27 55.27 C0.7 49.35, 0.03 40.27, 0.06 33.55 C0.09 26.84, 1.53 20.77, 5.44 14.98 C9.36 9.2, 20.01 0.54, 23.54 -1.16 C27.07 -2.86, 25.65 4.15, 26.61 4.76" stroke="#000000" stroke-width="2" fill="none"></path></g><g stroke-linecap="round"><g stroke-opacity="0.8" fill-opacity="0.8" transform="translate(210.81988766005634 301.08085777665104) rotate(0 21.61788755093471 28.428002989955985)" fill-rule="evenodd"><path d="M0 0 C0 0, 0 0, 0 0 M0 0 C0 0, 0 0, 0 0 M1.82 12.05 C1.08 7.43, 6.3 2.86, 8.79 0.38 M1.39 13.21 C1.31 8.66, 5.7 6.65, 9.2 0.68 M1.47 24.78 C1.38 21.18, 7.6 13.95, 19.21 -4.27 M-0.24 24.46 C10.06 13.53, 16.42 5.38, 20.49 0.08 M-0.13 39.07 C5.77 26.11, 11.08 23.38, 34.56 -4.09 M0.84 37.67 C11.23 19.98, 26.65 7.09, 36.53 -5.36 M1.26 53.61 C5.61 41.9, 16.73 27.61, 36.84 1.35 M-1.98 48.49 C9.13 37.55, 23.88 22.7, 40.44 1.29 M-3.65 58.12 C13.2 45.89, 26.57 30.9, 43.28 10.08 M-1.73 59.78 C7.9 49.13, 18.8 35.67, 44.41 12 M8.88 60.4 C17.68 51.81, 31.57 39.78, 40.21 22.95 M7.57 62.04 C17.86 50.34, 31.51 38.89, 42.7 24.12 M17.83 61.86 C24.97 57.05, 30.61 50.24, 45.63 35.91 M20.07 61.93 C26.99 54.98, 33.26 46.84, 45.25 33.6 M35.09 63.25 C32.75 55.82, 36 51.37, 44.96 48.62 M31.48 61.29 C36.62 58.18, 37.92 54.09, 44.42 48.63" stroke="#ffffff" stroke-width="1" fill="none"></path><path d="M0.53 1.49 C0.79 7.6, 1.08 26.93, 0.58 36.95 C0.07 46.96, -8.54 57.94, -2.5 61.58 C3.55 65.23, 29.17 65.53, 36.85 58.79 C44.53 52.06, 43.95 31.14, 43.6 21.16 C43.25 11.19, 39.44 2.75, 34.76 -1.07 C30.09 -4.9, 21.24 -2.4, 15.55 -1.8 C9.86 -1.2, 2.83 1.96, 0.62 2.53 M-2.63 -0.18 C-2.61 5.19, -2.33 23.82, -1.39 33.3 C-0.46 42.78, -3.4 52.03, 2.98 56.69 C9.36 61.35, 30.67 67.21, 36.9 61.25 C43.12 55.29, 40.36 31.5, 40.33 20.93 C40.29 10.35, 40.65 0.85, 36.69 -2.18 C32.72 -5.21, 22.9 1.88, 16.54 2.76 C10.18 3.64, 1.36 3.68, -1.47 3.1" stroke="#000000" stroke-width="2" fill="none"></path></g></g><mask></mask><g stroke-linecap="round"><g stroke-opacity="0.8" fill-opacity="0.8" transform="translate(208.3772257163373 303.55206014821664) rotate(0 -25.956159848427433 -17.30410656561844)"><path d="M0.21 1.08 C-2.21 4.62, -9.02 18.34, -14.3 21.88 C-19.58 25.41, -25.99 23.61, -31.47 22.27 C-36.95 20.94, -43.58 18.14, -47.18 13.84 C-50.77 9.54, -53.1 2.9, -53.03 -3.51 C-52.95 -9.93, -50.7 -18.53, -46.74 -24.64 C-42.77 -30.74, -34.24 -34.86, -29.25 -40.14 C-24.27 -45.42, -20.03 -54.46, -16.84 -56.29 C-13.66 -58.12, -11.23 -51.87, -10.13 -51.11 M-1.13 0.6 C-3.22 3.72, -6.93 16.19, -12.15 20.02 C-17.37 23.84, -26.68 24.45, -32.46 23.53 C-38.24 22.6, -43.69 19.42, -46.85 14.46 C-50.01 9.51, -51.64 -0.08, -51.42 -6.22 C-51.21 -12.37, -49.37 -16.61, -45.54 -22.39 C-41.72 -28.17, -33.17 -35.27, -28.47 -40.92 C-23.78 -46.56, -20.71 -54.36, -17.36 -56.26 C-14.01 -58.17, -9.65 -52.99, -8.39 -52.35" stroke="#000000" stroke-width="2" fill="none"></path></g></g><mask></mask><g stroke-linecap="round"><g stroke-opacity="0.8" fill-opacity="0.8" transform="translate(250.61960350887603 302.5341715267095) rotate(0 20.61224458551601 11.96019130270679)"><path d="M-1.07 0.5 C1.28 6.66, 10.31 39.98, 14.33 38.05 C18.36 36.12, 20.21 -3.49, 23.06 -11.1 C25.91 -18.7, 28.5 -6.94, 31.46 -7.59 C34.41 -8.23, 39.13 -14.04, 40.8 -14.97 M0.57 -0.28 C2.71 6.59, 9.53 41.19, 13.16 39.53 C16.8 37.86, 19.38 -2.08, 22.38 -10.26 C25.37 -18.45, 27.72 -8.8, 31.12 -9.58 C34.52 -10.36, 40.78 -14.27, 42.77 -14.95" stroke="#000000" stroke-width="2" fill="none"></path></g></g><mask></mask><g stroke-linecap="round"><g stroke-opacity="0.8" fill-opacity="0.8" transform="translate(208.88617002708997 359.5359343310992) rotate(0 -15.52280147798092 36.89846252962707)"><path d="M-0.4 0.52 C-2.66 8.94, 3.84 23.91, -2.89 60.94 M-0.77 0.48 C-0.22 22.88, 1.62 47.78, 0.25 61.93 M-1.76 58.9 C-13.12 62.03, -22.15 72.58, -29.44 72.95 M1.15 60.03 C-6.97 63.82, -15.5 67.7, -32.31 73.16" stroke="#000000" stroke-width="2" fill="none"></path></g></g><mask></mask><g stroke-linecap="round"><g stroke-opacity="0.8" fill-opacity="0.8" transform="translate(180.38528862489602 257.2381278696484) rotate(0 2.2902493983906425 -10.433358370446513)"><path d="M0.07 -0.42 C-0.32 -3.81, -3.61 -17, -2.55 -20.38 C-1.49 -23.76, 4.88 -20.77, 6.42 -20.69 M-0.56 0.55 C-0.77 -2.97, -2.66 -17.62, -1.58 -21.09 C-0.49 -24.56, 4.56 -20.31, 5.98 -20.25" stroke="#000000" stroke-width="2" fill="none"></path></g></g><mask></mask><g stroke-linecap="round"><g stroke-opacity="0.8" fill-opacity="0.8" transform="translate(180.38528862489602 259.2739051126627) rotate(0 -5.598387418288439 -10.178886215069724)"><path d="M-0.51 0.49 C-2 -1.19, -7.08 -7.12, -8.85 -10.51 C-10.61 -13.9, -10.76 -18.27, -11.08 -19.86 M0.23 0.26 C-1.35 -1.32, -7.44 -6.49, -9.38 -9.98 C-11.31 -13.46, -11.19 -18.83, -11.36 -20.67" stroke="#000000" stroke-width="2" fill="none"></path></g></g><mask></mask><g stroke-linecap="round"><g stroke-opacity="0.8" fill-opacity="0.8" transform="translate(182.42106586790942 261.309682355677) rotate(0 -10.687830525823074 -5.852859573664773)"><path d="M-0.19 -0.33 C-2.29 -0.67, -9.66 0.3, -13.11 -1.54 C-16.57 -3.38, -19.52 -9.71, -20.93 -11.38 M0.71 0.69 C-1.41 0.45, -9.85 -0.09, -13.48 -2.25 C-17.11 -4.41, -19.7 -10.82, -21.05 -12.28" stroke="#000000" stroke-width="2" fill="none"></path></g></g><mask></mask><g stroke-linecap="round"><g stroke-opacity="0.8" fill-opacity="0.8" transform="translate(249.60171488736887 361.5717115741135) rotate(0 14.250440701097432 35.371629597366336)"><path d="M3.62 3.24 C1.19 15.45, -0.61 32, -2.68 66.22 M1.93 0.59 C1.63 21.46, -1.14 43.86, -3.52 65.37 M-2.85 67.89 C10.82 69.75, 19.19 71.46, 29.62 72.85 M-1.49 62.89 C6.72 66.58, 15.76 66.38, 30.33 72.31" stroke="#000000" stroke-width="2" fill="none"></path></g></g><mask></mask><g stroke-linecap="round"><g stroke-opacity="0.8" fill-opacity="0.8" transform="translate(221.47418510459102 268.2297359158019) rotate(0 6.6169184039983975 -2.4813444014994275)"><path d="M0.45 0.32 C1.22 -0.56, 2.66 -4.57, 4.75 -4.83 C6.84 -5.09, 11.5 -1.92, 12.96 -1.26 M0.01 0.02 C0.68 -0.81, 2.13 -5.6, 4.21 -5.73 C6.29 -5.85, 10.88 -1.38, 12.47 -0.74" stroke="#000000" stroke-width="1" fill="none"></path></g></g><mask></mask><g stroke-opacity="0.8" fill-opacity="0.8" transform="translate(217.32113531339382 254.20827280901534) rotate(0 0.00005000000010113581 0.00004999999998744897)" stroke="none"><path fill="#000000" d="M 1.57,-1.57 Q 1.57,-1.57 1.77,-1.27 1.98,-0.98 2.09,-0.64 2.20,-0.29 2.19,0.05 2.18,0.41 2.05,0.75 1.93,1.09 1.70,1.37 1.48,1.65 1.18,1.84 0.87,2.04 0.52,2.12 0.18,2.21 -0.17,2.18 -0.53,2.15 -0.86,2.01 -1.19,1.87 -1.46,1.63 -1.73,1.39 -1.90,1.07 -2.08,0.76 -2.15,0.41 -2.21,0.05 -2.17,-0.29 -2.12,-0.65 -1.96,-0.97 -1.80,-1.29 -1.54,-1.54 -1.29,-1.80 -0.97,-1.96 -0.65,-2.12 -0.29,-2.17 0.06,-2.21 0.41,-2.15 0.76,-2.08 1.07,-1.90 1.39,-1.73 1.63,-1.46 1.87,-1.19 2.01,-0.86 2.15,-0.53 2.18,-0.17 2.21,0.18 2.12,0.52 2.03,0.87 1.84,1.18 1.65,1.48 1.37,1.70 1.09,1.93 0.75,2.05 0.41,2.18 0.05,2.19 -0.30,2.20 -0.64,2.09 -0.98,1.98 -1.27,1.77 -1.57,1.56 -1.57,1.57 -1.57,1.57 -1.73,1.35 -1.90,1.14 -2.01,0.90 -2.12,0.66 -2.16,0.39 -2.21,0.13 -2.20,-0.13 -2.18,-0.40 -2.10,-0.65 -2.02,-0.91 -1.88,-1.14 -1.74,-1.36 -1.55,-1.55 -1.36,-1.74 -1.14,-1.88 -0.91,-2.02 -0.65,-2.10 -0.40,-2.18 -0.13,-2.20 0.13,-2.21 0.39,-2.16 0.66,-2.12 0.90,-2.01 1.14,-1.90 1.35,-1.73 1.57,-1.57 1.57,-1.57 L 1.57,-1.57 Z"></path></g><g stroke-opacity="0.8" fill-opacity="0.8" transform="translate(238.6154313755178 253.48421467160182) rotate(0 0.00005000000010113581 0.00004999999998744897)" stroke="none"><path fill="#000000" d="M 1.57,-1.57 Q 1.57,-1.57 1.77,-1.27 1.98,-0.98 2.09,-0.64 2.20,-0.29 2.19,0.05 2.18,0.41 2.05,0.75 1.93,1.09 1.70,1.37 1.48,1.65 1.18,1.84 0.87,2.04 0.52,2.12 0.18,2.21 -0.17,2.18 -0.53,2.15 -0.86,2.01 -1.19,1.87 -1.46,1.63 -1.73,1.39 -1.90,1.07 -2.08,0.76 -2.15,0.41 -2.21,0.05 -2.17,-0.29 -2.12,-0.65 -1.96,-0.97 -1.80,-1.29 -1.54,-1.54 -1.29,-1.80 -0.97,-1.96 -0.65,-2.12 -0.29,-2.17 0.06,-2.21 0.41,-2.15 0.76,-2.08 1.07,-1.90 1.39,-1.73 1.63,-1.46 1.87,-1.19 2.01,-0.86 2.15,-0.53 2.18,-0.17 2.21,0.18 2.12,0.52 2.03,0.87 1.84,1.18 1.65,1.48 1.37,1.70 1.09,1.93 0.75,2.05 0.41,2.18 0.05,2.19 -0.30,2.20 -0.64,2.09 -0.98,1.98 -1.27,1.77 -1.57,1.56 -1.57,1.57 -1.57,1.57 -1.73,1.35 -1.90,1.14 -2.01,0.90 -2.12,0.66 -2.16,0.39 -2.21,0.13 -2.20,-0.13 -2.18,-0.40 -2.10,-0.65 -2.02,-0.91 -1.88,-1.14 -1.74,-1.36 -1.55,-1.55 -1.36,-1.74 -1.14,-1.88 -0.91,-2.02 -0.65,-2.10 -0.40,-2.18 -0.13,-2.20 0.13,-2.21 0.39,-2.16 0.66,-2.12 0.90,-2.01 1.14,-1.90 1.35,-1.73 1.57,-1.57 1.57,-1.57 L 1.57,-1.57 Z"></path></g><g stroke-linecap="round"><g stroke-opacity="0.8" fill-opacity="0.8" transform="translate(208.85672065650215 249.51003084209873) rotate(0 3.8124210980520274 -2.0332912522940205)"><path d="M0.19 0.16 C1.51 -0.45, 6.46 -3.05, 7.76 -3.73 M-0.15 -0.07 C1.16 -0.76, 6.21 -3.43, 7.55 -4.19" stroke="#000000" stroke-width="1" fill="none"></path></g></g><mask></mask><g stroke-linecap="round"><g stroke-opacity="0.8" fill-opacity="0.8" transform="translate(243.42267194550732 248.49338521595195) rotate(0 -2.795775471905017 -2.0332912522944753)"><path d="M0.14 0.33 C-0.77 -0.35, -4.34 -3.21, -5.25 -3.96 M-0.22 0.2 C-1.16 -0.61, -4.49 -3.86, -5.35 -4.53" stroke="#000000" stroke-width="1" fill="none"></path></g></g><mask></mask><g stroke-linecap="round"><g stroke-opacity="0.8" fill-opacity="0.8" transform="translate(208.77111658579815 218.23585814687254) rotate(0 4.381102029112981 -52.811470782340734)"><path d="M1.16 0.36 C-4.11 -2.19, -27.6 -7.95, -31.17 -14.16 C-34.74 -20.38, -27.81 -35.34, -20.26 -36.94 C-12.71 -38.54, 2.52 -23.36, 14.12 -23.76 C25.72 -24.16, 44.35 -32.26, 49.35 -39.34 C54.36 -46.43, 51.18 -60.15, 44.17 -66.26 C37.15 -72.37, 13.69 -77.6, 7.26 -76.01 C0.83 -74.41, 11.51 -58.87, 5.59 -56.69 C-0.32 -54.51, -22.82 -57.57, -28.25 -62.92 C-33.67 -68.28, -24.81 -81.66, -26.94 -88.84 C-29.07 -96.02, -38.8 -103.08, -41.01 -106 M0.31 -0.5 C-5.07 -2.37, -28.01 -6.95, -31.59 -12.82 C-35.18 -18.69, -28.76 -33.53, -21.21 -35.71 C-13.65 -37.9, 2.2 -25.43, 13.74 -25.92 C25.28 -26.42, 42.77 -31.77, 48.06 -38.7 C53.34 -45.63, 52.65 -61.12, 45.44 -67.51 C38.24 -73.9, 11.56 -78.79, 4.83 -77.05 C-1.89 -75.3, 10.81 -59.15, 5.09 -57.03 C-0.63 -54.92, -24.31 -59, -29.47 -64.37 C-34.62 -69.75, -23.9 -82.48, -25.84 -89.29 C-27.78 -96.09, -38.46 -102.24, -41.09 -105.22" stroke="#495057" stroke-width="1" fill="none"></path></g><g stroke-opacity="0.8" fill-opacity="0.8" transform="translate(208.77111658579815 218.23585814687254) rotate(0 4.381102029112981 -52.811470782340734)"><path d="M-31.22 -101.57 C-34.28 -101.83, -38.26 -104.25, -41.09 -105.22 M-31.22 -101.57 C-33.85 -102.34, -36.93 -103.76, -41.09 -105.22" stroke="#495057" stroke-width="1" fill="none"></path></g><g stroke-opacity="0.8" fill-opacity="0.8" transform="translate(208.77111658579815 218.23585814687254) rotate(0 4.381102029112981 -52.811470782340734)"><path d="M-35.88 -96.08 C-37.41 -98.25, -39.82 -102.52, -41.09 -105.22 M-35.88 -96.08 C-37.13 -98.45, -38.87 -101.44, -41.09 -105.22" stroke="#495057" stroke-width="1" fill="none"></path></g></g><mask></mask><g stroke-linecap="round"><g stroke-opacity="0.8" fill-opacity="0.8" transform="translate(147.50087821401553 133.9892803856718) rotate(0 87.09015181875463 42.48917296376345)"><path d="M1 -0.38 C2.28 4.13, 2.32 22.36, 8.84 27.4 C15.37 32.43, 33.41 33.32, 40.16 29.85 C46.91 26.39, 44.09 5.78, 49.35 6.61 C54.62 7.44, 69.05 27.16, 71.74 34.83 C74.42 42.51, 69.08 47.24, 65.46 52.66 C61.84 58.09, 50.06 63.93, 50.01 67.38 C49.97 70.84, 57.34 72.38, 65.19 73.4 C73.05 74.43, 89.49 75.1, 97.13 73.53 C104.78 71.95, 106.06 66.12, 111.06 63.95 C116.07 61.78, 116.76 57, 127.16 60.53 C137.57 64.06, 165.81 81.25, 173.49 85.13 M0.06 -1.62 C1.06 3.04, 0.65 23.92, 7.71 28.84 C14.77 33.76, 35.42 31.99, 42.43 27.9 C49.44 23.81, 44.55 3.12, 49.78 4.31 C55 5.49, 71.45 27.08, 73.79 35.02 C76.13 42.95, 68.19 46.76, 63.81 51.93 C59.43 57.1, 47.38 62.52, 47.52 66.03 C47.65 69.54, 56.57 71.98, 64.62 73 C72.66 74.02, 87.99 73.77, 95.79 72.15 C103.6 70.53, 106.15 65.14, 111.43 63.3 C116.72 61.46, 116.84 57.54, 127.49 61.12 C138.15 64.7, 167.8 80.64, 175.38 84.79" stroke="#495057" stroke-width="1" fill="none"></path></g><g stroke-opacity="0.8" fill-opacity="0.8" transform="translate(147.50087821401553 133.9892803856718) rotate(0 87.09015181875463 42.48917296376345)"><path d="M150.64 81.21 C159.83 81.85, 169.97 81.85, 175.38 84.79 M150.64 81.21 C159.4 82.08, 169.52 84.19, 175.38 84.79" stroke="#495057" stroke-width="1" fill="none"></path></g><g stroke-opacity="0.8" fill-opacity="0.8" transform="translate(147.50087821401553 133.9892803856718) rotate(0 87.09015181875463 42.48917296376345)"><path d="M158.73 66.14 C164.76 72.82, 171.69 78.8, 175.38 84.79 M158.73 66.14 C164.6 72.5, 171.79 80.08, 175.38 84.79" stroke="#495057" stroke-width="1" fill="none"></path></g></g><mask></mask><g stroke-linecap="round"><g stroke-opacity="0.8" fill-opacity="0.8" transform="translate(288.4224264691152 126.3305005891998) rotate(0 -86.64712388386351 45.95267877883694)"><path d="M-2.61 0.28 C-3.79 4.24, -5.21 14.28, -4.67 21.27 C-4.14 28.26, 1.42 36.98, 0.59 42.2 C-0.24 47.42, -3.49 51.92, -9.64 52.61 C-15.79 53.29, -28.38 48.33, -36.29 46.31 C-44.21 44.28, -52.76 38.29, -57.15 40.45 C-61.54 42.62, -62.41 53, -62.65 59.28 C-62.88 65.57, -59.26 72.78, -58.57 78.15 C-57.88 83.52, -53.08 92.41, -58.51 91.49 C-63.93 90.57, -86.89 78.61, -91.13 72.64 C-95.37 66.67, -81.4 60.52, -83.95 55.69 C-86.5 50.86, -91.38 40.73, -106.42 43.65 C-121.47 46.58, -162.61 68.28, -174.23 73.24 M1.18 -2.04 C-0.47 2.48, -6.94 17.44, -6.12 23.97 C-5.3 30.5, 7.77 33.18, 6.08 37.13 C4.38 41.08, -8.82 45.84, -16.28 47.69 C-23.74 49.54, -31.08 49.95, -38.68 48.25 C-46.28 46.56, -58.02 36.1, -61.89 37.51 C-65.75 38.91, -61.99 50.05, -61.88 56.69 C-61.76 63.33, -62.51 72.14, -61.19 77.36 C-59.88 82.58, -49.08 88.76, -53.98 88 C-58.87 87.23, -85.44 79, -90.56 72.75 C-95.68 66.5, -81.71 55.45, -84.69 50.5 C-87.68 45.55, -93.85 39.6, -108.49 43.06 C-123.13 46.52, -161 66.27, -172.53 71.26" stroke="#495057" stroke-width="1" fill="none"></path></g><g stroke-opacity="0.8" fill-opacity="0.8" transform="translate(288.4224264691152 126.3305005891998) rotate(0 -86.64712388386351 45.95267877883694)"><path d="M-154.75 54.52 C-163.12 58.42, -168.1 68.93, -171.06 72.69 M-155.44 53.87 C-161.47 59.97, -167.9 66.34, -173.35 72.04" stroke="#495057" stroke-width="1" fill="none"></path></g><g stroke-opacity="0.8" fill-opacity="0.8" transform="translate(288.4224264691152 126.3305005891998) rotate(0 -86.64712388386351 45.95267877883694)"><path d="M-147.44 69.98 C-158.5 67.84, -166.3 72.37, -171.06 72.69 M-148.13 69.33 C-156.9 69.72, -166.02 70.41, -173.35 72.04" stroke="#495057" stroke-width="1" fill="none"></path></g></g><mask></mask><g stroke-linecap="round"><g stroke-opacity="0.8" fill-opacity="0.8" transform="translate(231.74745597521633 114.07645291484329) rotate(0 13.151767361690645 32.283269814259654)"><path d="M-1.2 0.75 C-2.36 5.71, -1.61 19.82, -7.32 29.59 C-13.04 39.35, -33.06 52.18, -35.49 59.34 C-37.91 66.51, -28.18 73.79, -21.85 72.58 C-15.51 71.36, -3.81 59.84, 2.53 52.07 C8.87 44.29, 11.13 32.3, 16.18 25.92 C21.22 19.54, 25.37 19.41, 32.8 13.79 C40.23 8.17, 55.98 -4.15, 60.78 -7.81 M0.38 0.1 C-0.88 4.71, -1.97 17.66, -8.09 27.72 C-14.22 37.77, -33.62 53.35, -36.38 60.45 C-39.15 67.55, -30.99 71.66, -24.67 70.32 C-18.34 68.99, -4.93 60.04, 1.58 52.45 C8.09 44.87, 9.01 31.48, 14.38 24.81 C19.74 18.15, 25.67 17.98, 33.77 12.45 C41.88 6.92, 58.66 -5.23, 63.02 -8.35" stroke="#495057" stroke-width="1" fill="none"></path></g><g stroke-opacity="0.8" fill-opacity="0.8" transform="translate(231.74745597521633 114.07645291484329) rotate(0 13.151767361690645 32.283269814259654)"><path d="M52.82 6.62 C56.73 3.17, 59.1 -1.78, 63.02 -8.35 M52.82 6.62 C56.15 2.57, 58.77 -1.51, 63.02 -8.35" stroke="#495057" stroke-width="1" fill="none"></path></g><g stroke-opacity="0.8" fill-opacity="0.8" transform="translate(231.74745597521633 114.07645291484329) rotate(0 13.151767361690645 32.283269814259654)"><path d="M45.58 -3.44 C51.44 -4.09, 55.77 -6.31, 63.02 -8.35 M45.58 -3.44 C50.94 -4.84, 55.49 -6.24, 63.02 -8.35" stroke="#495057" stroke-width="1" fill="none"></path></g></g><mask></mask><g stroke-linecap="round"><g transform="translate(305.5880812275491 38.73929461899098) rotate(0 35.55138717496584 38.610589745456224)" fill-rule="evenodd"><path d="M-1.75 2.35 C-1.69 13.68, 0.59 56.19, 1.21 68.54 C1.83 80.89, 1.86 74.65, 1.96 76.44 C2.07 78.23, -0.86 78.1, 1.84 79.29 C4.53 80.48, 11.8 82.52, 18.14 83.57 C24.48 84.63, 33.02 85.92, 39.86 85.64 C46.7 85.37, 54.41 82.54, 59.2 81.93 C63.99 81.32, 66.82 83.22, 68.6 81.98 C70.38 80.74, 69.75 76.29, 69.88 74.48 C70.02 72.68, 69.51 82.32, 69.41 71.15 C69.31 59.97, 69.18 19.66, 69.28 7.43 C69.39 -4.81, 70.99 -0.22, 70.05 -2.25 C69.11 -4.27, 65.89 -3.96, 63.63 -4.72 C61.37 -5.47, 60.95 -6.51, 56.49 -6.79 C52.03 -7.07, 43.6 -6.66, 36.88 -6.38 C30.16 -6.1, 21.72 -6.02, 16.17 -5.1 C10.63 -4.18, 6.62 -1.91, 3.59 -0.86 C0.56 0.19, -1.61 1.03, -2.01 1.19 C-2.41 1.36, 1.02 0.65, 1.2 0.13" stroke="none" stroke-width="0" fill="#228be6" fill-rule="evenodd"></path><path d="M-1.07 -0.16 C-1.35 11.55, -1.04 56.75, -0.78 69.5 C-0.52 82.24, -0.16 74.44, 0.48 76.31 C1.11 78.17, 0.24 79.4, 3.04 80.69 C5.85 81.98, 11.35 83.26, 17.32 84.07 C23.28 84.87, 31.84 85.71, 38.83 85.53 C45.81 85.36, 53.99 84.03, 59.24 83 C64.49 81.97, 68.53 80.49, 70.31 79.35 C72.09 78.21, 69.78 77.46, 69.93 76.16 C70.07 74.86, 70.95 83.28, 71.17 71.56 C71.39 59.84, 71.38 17.79, 71.24 5.82 C71.1 -6.14, 71.12 1.44, 70.34 -0.22 C69.56 -1.88, 68.87 -3.2, 66.57 -4.15 C64.26 -5.1, 62.01 -5.33, 56.51 -5.91 C51.01 -6.49, 40.25 -7.6, 33.58 -7.62 C26.92 -7.64, 21.45 -6.63, 16.52 -6.04 C11.59 -5.45, 6.74 -5.21, 4 -4.07 C1.27 -2.94, 0.8 0.19, 0.12 0.77 C-0.56 1.36, 0.02 -0.38, -0.07 -0.58 M0.57 -1.29 C0.57 10.7, 1.5 58, 1.4 71.06 C1.29 84.13, -0.31 75.3, -0.05 77.08 C0.22 78.87, 0.23 80.49, 2.96 81.76 C5.69 83.02, 10.65 84.13, 16.33 84.68 C22.01 85.22, 29.73 85.53, 37.06 85.01 C44.39 84.5, 54.84 82.63, 60.29 81.6 C65.74 80.57, 67.92 79.42, 69.77 78.84 C71.62 78.26, 71.02 79.3, 71.39 78.11 C71.75 76.92, 71.91 83.59, 71.96 71.71 C72.01 59.83, 72.22 18.86, 71.7 6.81 C71.17 -5.24, 69.57 1.39, 68.8 -0.61 C68.03 -2.62, 69.24 -4.28, 67.09 -5.21 C64.93 -6.15, 61.47 -5.71, 55.87 -6.23 C50.26 -6.75, 39.87 -8.6, 33.45 -8.33 C27.03 -8.07, 22.4 -5.38, 17.37 -4.64 C12.33 -3.9, 6.33 -4.94, 3.25 -3.9 C0.18 -2.87, -0.29 1.02, -1.09 1.57 C-1.88 2.12, -1.65 -0.57, -1.49 -0.63" stroke="#0a11d3" stroke-width="1" fill="none"></path></g></g><mask></mask><g stroke-linecap="round"><g transform="translate(306.14269605055733 91.4202610204515) rotate(0 35.62678973524771 3.589505645833583)"><path d="M-1.02 0.06 C-0.45 0.44, 0.61 1.18, 2.34 2.12 C4.07 3.07, 6.13 4.78, 9.35 5.73 C12.57 6.68, 16.8 7.35, 21.67 7.82 C26.53 8.28, 32.47 8.76, 38.54 8.53 C44.61 8.3, 52.89 7.42, 58.09 6.41 C63.29 5.41, 67.72 3.72, 69.75 2.49 C71.77 1.26, 70 -0.7, 70.25 -0.98 M0.65 -0.95 C1.2 -0.44, 0.37 1.79, 1.64 3.12 C2.91 4.44, 4.8 6.01, 8.26 7.01 C11.72 8.02, 17.52 9.35, 22.4 9.14 C27.28 8.94, 31.91 6.42, 37.55 5.78 C43.19 5.14, 51.31 5.51, 56.25 5.32 C61.2 5.13, 64.53 5.8, 67.22 4.63 C69.9 3.47, 71.96 -0.87, 72.36 -1.64" stroke="#0a11d3" stroke-width="1" fill="none"></path></g></g><mask></mask><g stroke-linecap="round"><g transform="translate(305.26018346271803 64.73355542202461) rotate(0 35.62678973524771 3.589505645833583)"><path d="M0.47 -1.03 C0.84 -0.53, -0.48 1.88, 1.25 3.09 C2.99 4.29, 7.49 5.33, 10.9 6.22 C14.3 7.1, 17.08 8.18, 21.66 8.39 C26.25 8.59, 32.3 7.8, 38.4 7.43 C44.5 7.07, 53.34 7.07, 58.24 6.2 C63.15 5.33, 65.64 3.1, 67.82 2.2 C69.99 1.3, 70.67 1.21, 71.29 0.79 M-0.75 1.04 C0.12 1.74, 1.74 4.08, 3.64 4.59 C5.53 5.1, 7.49 3.8, 10.61 4.09 C13.74 4.39, 17.94 5.74, 22.39 6.35 C26.84 6.96, 31.65 7.99, 37.34 7.77 C43.02 7.54, 51.38 5.59, 56.48 4.99 C61.58 4.39, 65.64 4.85, 67.94 4.19 C70.24 3.53, 69.93 2.04, 70.28 1.05" stroke="#0a11d3" stroke-width="1" fill="none"></path></g></g><mask></mask><g stroke-linecap="round" transform="translate(304.35581975487185 32.26436854559961) rotate(0 35.36159408838694 7.151616368180441)"><path d="M33.22 0.03 C40.41 0.02, 50.22 1.03, 56.34 1.92 C62.47 2.82, 68.19 3.95, 69.99 5.38 C71.79 6.81, 70.54 9.17, 67.16 10.49 C63.78 11.82, 56.65 12.7, 49.69 13.33 C42.72 13.95, 32.67 14.65, 25.36 14.24 C18.04 13.83, 10.03 12.17, 5.78 10.88 C1.53 9.58, -1.06 7.87, -0.14 6.46 C0.78 5.04, 5.53 3.39, 11.31 2.39 C17.09 1.4, 30.51 0.89, 34.56 0.49 C38.62 0.09, 35.62 -0.09, 35.64 -0.01 M27.19 0.62 C34.19 0.11, 44.76 0.22, 51.54 0.94 C58.31 1.66, 64.81 3.65, 67.83 4.94 C70.85 6.22, 71.94 7.28, 69.66 8.66 C67.39 10.05, 60.51 12.43, 54.17 13.26 C47.83 14.09, 39.13 13.77, 31.62 13.63 C24.11 13.49, 14.5 13.37, 9.12 12.42 C3.74 11.46, -0.34 9.37, -0.68 7.9 C-1.02 6.42, 2.33 4.75, 7.06 3.58 C11.8 2.41, 24.19 1.43, 27.72 0.87 C31.26 0.3, 28.12 0.26, 28.28 0.18" stroke="none" stroke-width="0" fill="#fff"></path><path d="M42.53 0.46 C49.65 0.64, 58.13 1.97, 62.8 3.04 C67.48 4.11, 70.75 5.39, 70.58 6.86 C70.41 8.33, 66.66 10.61, 61.79 11.86 C56.92 13.1, 48.8 14.11, 41.36 14.33 C33.92 14.55, 23.71 13.95, 17.14 13.18 C10.57 12.41, 4.44 11.13, 1.95 9.71 C-0.55 8.28, -0.54 6.16, 2.16 4.63 C4.86 3.11, 11.3 1.3, 18.12 0.53 C24.95 -0.24, 38.74 -0.01, 43.09 0.03 C47.44 0.07, 44.43 0.62, 44.24 0.77 M41.09 -0.16 C48.31 0.09, 57.76 1.37, 62.61 2.7 C67.46 4.04, 70.15 6.38, 70.19 7.84 C70.23 9.3, 67.51 10.44, 62.85 11.45 C58.19 12.46, 49.85 13.67, 42.25 13.91 C34.65 14.16, 23.84 13.63, 17.26 12.91 C10.67 12.19, 5.15 10.91, 2.72 9.61 C0.29 8.3, 0.17 6.57, 2.68 5.07 C5.19 3.57, 11.37 1.32, 17.77 0.61 C24.18 -0.1, 37.25 0.99, 41.11 0.81 C44.97 0.63, 41.06 -0.5, 40.91 -0.46" stroke="#0a11d3" stroke-width="1" fill="none"></path></g><g stroke-linecap="round" transform="translate(362.0552288129743 52.09396736410224) rotate(0 5.182580583729759 5.62468643760721)"><path d="M3.7 0.66 C4.78 0.29, 6.57 -0.04, 7.65 0.43 C8.73 0.89, 9.68 2.39, 10.17 3.45 C10.66 4.51, 10.9 5.6, 10.59 6.78 C10.29 7.96, 9.32 9.83, 8.33 10.54 C7.34 11.25, 5.88 11.18, 4.66 11.03 C3.45 10.89, 1.81 10.45, 1.06 9.69 C0.3 8.93, 0.19 7.62, 0.14 6.47 C0.09 5.32, 0.2 3.88, 0.76 2.8 C1.33 1.72, 3 0.38, 3.54 -0.01 C4.08 -0.4, 3.97 0.4, 4 0.46 M6.5 0.32 C7.57 0.56, 8.54 2.05, 9.27 2.9 C9.99 3.75, 10.99 4.32, 10.86 5.44 C10.74 6.57, 9.27 8.79, 8.52 9.65 C7.77 10.51, 7.45 10.43, 6.36 10.6 C5.26 10.77, 3.1 11.19, 1.95 10.68 C0.8 10.17, -0.26 8.64, -0.53 7.54 C-0.8 6.44, -0.27 5.11, 0.35 4.06 C0.96 3.01, 2.03 1.92, 3.16 1.25 C4.28 0.57, 6.47 0.28, 7.09 0.03 C7.71 -0.22, 7.02 -0.44, 6.87 -0.26" stroke="none" stroke-width="0" fill="#fff"></path><path d="M6.12 0.49 C7.08 0.51, 8.41 0.79, 9.07 1.66 C9.74 2.54, 10.02 4.44, 10.11 5.73 C10.19 7.02, 10.26 8.53, 9.58 9.42 C8.89 10.31, 7.17 10.87, 6 11.08 C4.83 11.29, 3.53 11.27, 2.54 10.68 C1.56 10.08, 0.48 8.75, 0.09 7.51 C-0.29 6.27, -0.17 4.41, 0.24 3.25 C0.65 2.09, 1.48 1, 2.54 0.56 C3.6 0.11, 5.97 0.6, 6.59 0.58 C7.22 0.56, 6.27 0.42, 6.28 0.44 M4.82 0.21 C5.81 0.17, 6.54 1.05, 7.48 1.63 C8.41 2.22, 9.93 2.73, 10.44 3.72 C10.95 4.7, 11.13 6.48, 10.55 7.56 C9.97 8.64, 7.97 9.6, 6.97 10.19 C5.97 10.78, 5.43 11.22, 4.54 11.08 C3.65 10.94, 2.36 10.36, 1.64 9.34 C0.92 8.32, 0.31 6.1, 0.23 4.96 C0.15 3.82, 0.49 3.43, 1.16 2.49 C1.83 1.55, 3.76 -0.31, 4.24 -0.66 C4.72 -1.01, 4.06 0.09, 4.04 0.38" stroke="#0a11d3" stroke-width="1" fill="none"></path></g><g stroke-linecap="round" transform="translate(362.0552288129743 76.7863196718078) rotate(0 5.182580583729759 5.62468643760721)"><path d="M5.43 -0.14 C6.56 -0.27, 7.92 0.72, 8.8 1.46 C9.69 2.2, 10.54 3.09, 10.73 4.3 C10.91 5.51, 10.53 7.66, 9.9 8.73 C9.27 9.8, 8.09 10.36, 6.93 10.75 C5.78 11.13, 3.99 11.37, 2.97 11.05 C1.94 10.73, 1.31 9.84, 0.8 8.85 C0.28 7.85, -0.24 6.37, -0.14 5.08 C-0.04 3.79, 0.51 1.93, 1.39 1.13 C2.28 0.32, 4.58 0.46, 5.18 0.24 C5.79 0.02, 4.91 -0.22, 5.01 -0.2 M5.82 0.62 C6.95 0.59, 8.87 0.47, 9.57 1.29 C10.26 2.12, 9.93 4.37, 9.98 5.57 C10.04 6.77, 10.58 7.5, 9.9 8.5 C9.22 9.49, 7.23 11.12, 5.91 11.54 C4.59 11.95, 2.94 11.48, 1.99 10.96 C1.05 10.45, 0.5 9.51, 0.25 8.44 C0 7.37, 0.02 5.83, 0.49 4.54 C0.97 3.25, 2.12 1.53, 3.1 0.69 C4.08 -0.15, 5.92 -0.46, 6.37 -0.48 C6.82 -0.5, 5.8 0.4, 5.78 0.56" stroke="none" stroke-width="0" fill="#fff"></path><path d="M5.88 -0.34 C6.9 -0.29, 8.03 0.97, 8.85 1.97 C9.68 2.97, 10.79 4.48, 10.84 5.66 C10.9 6.85, 9.97 8.13, 9.19 9.08 C8.42 10.04, 7.29 11.13, 6.17 11.38 C5.05 11.63, 3.45 11.27, 2.46 10.58 C1.47 9.89, 0.61 8.41, 0.23 7.25 C-0.15 6.09, -0.24 4.63, 0.17 3.62 C0.57 2.61, 1.69 1.75, 2.66 1.19 C3.62 0.62, 5.2 0.36, 5.94 0.22 C6.68 0.08, 7.07 0.3, 7.09 0.35 M4.2 0.74 C5.25 0.5, 7.36 0.22, 8.46 0.75 C9.56 1.27, 10.65 2.76, 10.79 3.9 C10.93 5.03, 9.8 6.42, 9.32 7.56 C8.84 8.69, 8.72 10.06, 7.9 10.7 C7.09 11.34, 5.56 11.76, 4.43 11.39 C3.31 11.02, 1.93 9.41, 1.16 8.48 C0.38 7.56, -0.23 7.09, -0.22 5.84 C-0.21 4.58, 0.47 1.87, 1.2 0.94 C1.94 0.01, 3.7 0.3, 4.21 0.25 C4.71 0.19, 4.16 0.67, 4.23 0.62" stroke="#0a11d3" stroke-width="1" fill="none"></path></g><g stroke-linecap="round" transform="translate(362.0552288129743 103.62362573947314) rotate(0 5.182580583729759 5.62468643760721)"><path d="M6.7 0.28 C7.78 0.45, 9.17 0.93, 9.82 1.93 C10.47 2.93, 10.75 5.04, 10.6 6.28 C10.46 7.52, 9.81 8.51, 8.93 9.36 C8.05 10.21, 6.4 11.15, 5.31 11.38 C4.23 11.61, 3.29 11.36, 2.4 10.74 C1.51 10.11, 0.37 8.91, -0.03 7.64 C-0.44 6.38, -0.51 4.31, -0.04 3.17 C0.42 2.03, 1.72 1.34, 2.76 0.8 C3.79 0.25, 5.41 0, 6.15 -0.11 C6.89 -0.21, 7.11 0.01, 7.21 0.16 M5.95 -0.59 C6.97 -0.68, 7.49 0.79, 8.33 1.6 C9.17 2.42, 10.83 3.06, 10.98 4.31 C11.13 5.55, 10.05 7.9, 9.22 9.08 C8.38 10.26, 7.01 10.98, 5.98 11.39 C4.96 11.8, 3.92 11.97, 3.06 11.55 C2.19 11.13, 1.18 10.1, 0.8 8.87 C0.42 7.65, 0.48 5.61, 0.76 4.23 C1.04 2.85, 1.73 1.24, 2.49 0.6 C3.25 -0.04, 4.75 0.5, 5.3 0.39 C5.86 0.29, 5.7 -0.06, 5.82 -0.05" stroke="none" stroke-width="0" fill="#fff"></path><path d="M5.92 0.12 C7.07 0.36, 8.95 1.28, 9.69 2.2 C10.43 3.12, 10.46 4.4, 10.36 5.63 C10.27 6.85, 9.88 8.62, 9.11 9.55 C8.35 10.48, 6.91 11.14, 5.79 11.23 C4.68 11.32, 3.34 10.73, 2.41 10.08 C1.47 9.42, 0.48 8.31, 0.16 7.3 C-0.17 6.29, 0.12 5.09, 0.47 4 C0.81 2.91, 1.17 1.41, 2.22 0.77 C3.26 0.12, 6.06 0.23, 6.75 0.13 C7.44 0.03, 6.47 0.03, 6.36 0.16 M5.78 -0.26 C7.03 -0.44, 8.67 0.46, 9.33 1.26 C10 2.05, 9.65 3.28, 9.77 4.52 C9.89 5.76, 10.47 7.55, 10.05 8.69 C9.63 9.83, 8.39 11.06, 7.27 11.35 C6.16 11.64, 4.52 10.84, 3.36 10.43 C2.2 10.01, 0.9 9.99, 0.31 8.86 C-0.28 7.73, -0.39 4.88, -0.18 3.63 C0.03 2.38, 0.7 1.86, 1.55 1.34 C2.41 0.82, 4.34 0.8, 4.96 0.5 C5.59 0.2, 5.35 -0.44, 5.31 -0.48" stroke="#0a11d3" stroke-width="1" fill="none"></path></g><g stroke-linecap="round"><g transform="translate(104.07979274294439 18.97353391131611) rotate(0 37.078713104738995 40.269342316539706)" fill-rule="evenodd"><path d="M0.94 -0.7 C1.38 11.05, 1.28 59.73, 1.48 72.96 C1.67 86.19, 1.52 76.61, 2.12 78.69 C2.72 80.77, 2.54 84.15, 5.06 85.43 C7.58 86.7, 11.81 85.75, 17.23 86.34 C22.66 86.93, 30.21 88.52, 37.61 88.95 C45 89.39, 55.99 89.5, 61.6 88.92 C67.21 88.34, 69.59 87.07, 71.24 85.47 C72.9 83.87, 71.19 81.14, 71.54 79.32 C71.9 77.51, 73.33 87.06, 73.37 74.59 C73.42 62.12, 71.38 17.16, 71.82 4.51 C72.27 -8.14, 76.31 0.07, 76.05 -1.3 C75.8 -2.67, 73.08 -2.87, 70.29 -3.71 C67.5 -4.54, 64.73 -5.92, 59.31 -6.3 C53.89 -6.68, 45.05 -5.72, 37.77 -5.97 C30.5 -6.23, 21.37 -8.68, 15.66 -7.84 C9.95 -7, 6.46 -2.09, 3.51 -0.96 C0.55 0.17, -1.7 -0.85, -2.07 -1.08 C-2.43 -1.31, 0.75 -2.48, 1.31 -2.36" stroke="none" stroke-width="0" fill="#7950f2" fill-rule="evenodd"></path><path d="M-0.29 -0.36 C-0.16 12.02, 0.67 59.85, 0.53 73.37 C0.4 86.9, -1.77 79.02, -1.09 80.82 C-0.41 82.61, 1.71 83.15, 4.64 84.15 C7.58 85.15, 10.77 86.08, 16.52 86.82 C22.27 87.56, 31.67 88.76, 39.12 88.59 C46.58 88.42, 55.52 86.65, 61.25 85.82 C66.98 84.98, 71.47 84.37, 73.52 83.57 C75.56 82.78, 73.49 82.87, 73.53 81.03 C73.57 79.19, 73.8 84.89, 73.76 72.54 C73.72 60.19, 73.33 18.91, 73.3 6.93 C73.27 -5.05, 74.24 2.41, 73.59 0.67 C72.94 -1.07, 71.95 -2.33, 69.39 -3.49 C66.83 -4.65, 63.62 -5.51, 58.24 -6.29 C52.85 -7.07, 44.03 -7.95, 37.07 -8.15 C30.11 -8.34, 22.07 -8.16, 16.48 -7.45 C10.89 -6.75, 6.16 -5.12, 3.54 -3.93 C0.92 -2.74, 1.5 -0.77, 0.74 -0.31 C-0.01 0.15, -0.76 -1.23, -0.97 -1.17 M1.75 -1.59 C1.77 10.54, -0.17 57.79, -0.26 71.76 C-0.35 85.72, 0.3 79.97, 1.23 82.22 C2.16 84.46, 2.45 84.43, 5.32 85.22 C8.18 86.02, 12.57 86.57, 18.41 86.99 C24.24 87.41, 33.05 87.65, 40.32 87.77 C47.59 87.88, 56.58 88.4, 62.04 87.68 C67.5 86.97, 70.88 84.74, 73.09 83.48 C75.3 82.23, 75.09 82.13, 75.29 80.15 C75.49 78.17, 74.63 84.19, 74.29 71.62 C73.95 59.04, 73.6 16.52, 73.25 4.71 C72.89 -7.11, 72.71 2.22, 72.16 0.75 C71.6 -0.72, 72.39 -2.88, 69.9 -4.12 C67.42 -5.36, 63.16 -5.88, 57.23 -6.68 C51.3 -7.49, 41.05 -8.98, 34.33 -8.97 C27.62 -8.97, 22.23 -7.54, 16.92 -6.65 C11.61 -5.75, 5.32 -4.71, 2.48 -3.61 C-0.37 -2.52, 0.15 -0.42, -0.13 -0.08 C-0.41 0.27, 0.83 -1.26, 0.8 -1.53" stroke="#0a11d3" stroke-width="1" fill="none"></path></g></g><mask></mask><g stroke-linecap="round"><g transform="translate(104.65823441681619 73.91773143775231) rotate(0 37.15735504032034 3.74371467911169)"><path d="M0.29 0.96 C0.48 1.59, -0.96 2.61, 0.86 3.44 C2.68 4.28, 7.85 5.33, 11.22 5.97 C14.59 6.62, 16.46 6.91, 21.06 7.3 C25.66 7.68, 32.33 8.51, 38.82 8.28 C45.32 8.05, 54.37 6.75, 60.05 5.94 C65.74 5.13, 70.62 4.31, 72.92 3.42 C75.23 2.52, 73.72 1.36, 73.88 0.58 M-1.02 0.42 C-0.44 1.3, 1.01 3.92, 2.99 5.06 C4.97 6.2, 7.88 6.74, 10.88 7.26 C13.88 7.78, 16.02 7.91, 21 8.18 C25.99 8.45, 34.64 8.9, 40.8 8.89 C46.95 8.88, 53 9.21, 57.95 8.11 C62.9 7.02, 68.07 3.55, 70.51 2.32 C72.96 1.09, 71.77 1.04, 72.62 0.74" stroke="#0a11d3" stroke-width="1" fill="none"></path></g></g><mask></mask><g stroke-linecap="round"><g transform="translate(103.73780813654889 46.08453618928462) rotate(0 37.15735504032034 3.74371467911169)"><path d="M-1.1 0.16 C-0.69 0.53, 0.95 2.31, 2.77 3.22 C4.6 4.13, 6.75 4.81, 9.82 5.63 C12.9 6.44, 16.27 7.9, 21.22 8.13 C26.17 8.36, 32.9 7.15, 39.51 7.01 C46.13 6.87, 55.62 7.8, 60.93 7.28 C66.23 6.76, 69.18 5.32, 71.34 3.89 C73.49 2.47, 73.5 -0.71, 73.87 -1.28 M0.52 -0.81 C0.82 -0.32, 0.88 3.46, 2.26 4.72 C3.63 5.97, 5.59 5.93, 8.75 6.72 C11.92 7.51, 16.35 9.41, 21.25 9.45 C26.16 9.49, 31.85 7.44, 38.19 6.95 C44.53 6.45, 53.69 7.14, 59.28 6.5 C64.88 5.85, 69.53 4.48, 71.75 3.05 C73.97 1.62, 72.04 -1.5, 72.62 -2.09" stroke="#0a11d3" stroke-width="1" fill="none"></path></g></g><mask></mask><g stroke-linecap="round" transform="translate(102.79459198859536 12.220438031593858) rotate(0 36.88076630249759 7.458857519282475)"><path d="M45.98 0.33 C53.39 0.62, 62.06 2.26, 66.73 3.47 C71.4 4.69, 74.61 6.07, 74 7.61 C73.39 9.16, 68.55 11.59, 63.05 12.73 C57.55 13.87, 48.88 14.27, 41.02 14.47 C33.16 14.66, 22.6 14.68, 15.92 13.89 C9.23 13.11, 3.03 11.24, 0.9 9.74 C-1.22 8.24, -0.17 6.32, 3.18 4.89 C6.53 3.47, 13.68 1.99, 21 1.2 C28.33 0.41, 42.7 0.36, 47.12 0.17 C51.54 -0.01, 47.78 -0.08, 47.53 0.1 M41.44 -0.34 C48.95 -0.27, 58.43 1.6, 63.81 2.79 C69.2 3.98, 73.32 5.21, 73.74 6.81 C74.17 8.41, 71.09 11.09, 66.34 12.4 C61.58 13.7, 52.85 14.45, 45.19 14.63 C37.54 14.81, 27.35 14.21, 20.41 13.47 C13.47 12.74, 6.66 11.67, 3.56 10.22 C0.46 8.77, -0.4 6.28, 1.83 4.77 C4.05 3.25, 10.31 1.8, 16.89 1.13 C23.46 0.45, 37.12 0.96, 41.26 0.72 C45.41 0.47, 41.73 -0.39, 41.75 -0.34" stroke="none" stroke-width="0" fill="#fff"></path><path d="M32.62 0.17 C39.99 0, 50.04 0.87, 56.66 1.69 C63.29 2.51, 69.94 3.69, 72.37 5.11 C74.79 6.53, 74.4 8.75, 71.2 10.2 C68.01 11.65, 60.25 13.06, 53.19 13.81 C46.14 14.56, 36.45 14.98, 28.88 14.71 C21.31 14.43, 12.57 13.48, 7.79 12.16 C3.01 10.85, -0.13 8.37, 0.2 6.81 C0.54 5.26, 4.17 4.04, 9.79 2.83 C15.41 1.62, 29.65 -0.03, 33.94 -0.45 C38.23 -0.87, 35.5 0.05, 35.53 0.3 M34.55 0.04 C42.06 0.11, 52.24 1.32, 58.66 2.23 C65.08 3.15, 71.17 4.09, 73.08 5.55 C75 7.01, 73.67 9.63, 70.16 11 C66.65 12.36, 59.29 13.05, 52.02 13.71 C44.75 14.38, 34.22 15.37, 26.56 14.97 C18.9 14.56, 10.52 12.62, 6.04 11.26 C1.56 9.9, -1.3 8.23, -0.33 6.81 C0.64 5.38, 6.05 3.71, 11.86 2.7 C17.66 1.69, 30.8 1.2, 34.52 0.74 C38.24 0.28, 34.11 -0.13, 34.16 -0.07" stroke="#0a11d3" stroke-width="1" fill="none"></path></g><g stroke-linecap="round" transform="translate(162.97282987982635 32.901937798530355) rotate(0 5.405229834227839 5.8663290323312935)"><path d="M6.11 0.44 C7.26 0.45, 9.05 0.68, 9.79 1.57 C10.53 2.46, 10.51 4.51, 10.56 5.77 C10.61 7.02, 10.79 8.08, 10.08 9.09 C9.37 10.11, 7.57 11.51, 6.28 11.88 C4.99 12.25, 3.35 11.85, 2.35 11.29 C1.36 10.73, 0.63 9.66, 0.31 8.53 C-0.01 7.39, -0.02 5.77, 0.43 4.47 C0.88 3.18, 1.95 1.56, 2.99 0.77 C4.03 -0.01, 6.1 -0.22, 6.69 -0.26 C7.27 -0.3, 6.5 0.38, 6.48 0.52 M6.33 0.51 C7.44 0.69, 8.89 0.93, 9.65 1.91 C10.41 2.9, 10.89 5.14, 10.89 6.42 C10.88 7.71, 10.32 8.86, 9.61 9.63 C8.9 10.4, 7.67 10.86, 6.61 11.04 C5.56 11.23, 4.3 11.38, 3.28 10.75 C2.25 10.12, 0.95 8.44, 0.46 7.26 C-0.03 6.08, 0 4.66, 0.35 3.68 C0.7 2.7, 1.49 2.07, 2.57 1.38 C3.64 0.7, 6.09 -0.28, 6.8 -0.43 C7.51 -0.59, 6.82 0.28, 6.83 0.44" stroke="none" stroke-width="0" fill="#fff"></path><path d="M4.58 0.5 C5.68 0.27, 7.64 0.27, 8.71 0.88 C9.78 1.49, 10.82 2.98, 11.03 4.17 C11.23 5.37, 10.43 6.89, 9.93 8.05 C9.43 9.22, 8.96 10.55, 8.04 11.17 C7.12 11.79, 5.55 12.12, 4.4 11.76 C3.25 11.39, 1.88 9.97, 1.12 8.98 C0.37 8, -0.18 7.11, -0.14 5.82 C-0.1 4.53, 0.56 2.19, 1.37 1.25 C2.19 0.3, 4.15 0.29, 4.73 0.16 C5.32 0.03, 4.85 0.44, 4.9 0.45 M3.76 0.92 C4.91 0.51, 6.91 -0.08, 8.07 0.38 C9.23 0.84, 10.19 2.57, 10.72 3.65 C11.25 4.73, 11.57 5.64, 11.25 6.88 C10.93 8.13, 9.86 10.34, 8.8 11.1 C7.74 11.86, 6.19 11.58, 4.88 11.42 C3.56 11.27, 1.7 10.92, 0.92 10.18 C0.14 9.43, 0.24 8.13, 0.2 6.96 C0.17 5.79, 0.17 4.31, 0.69 3.14 C1.22 1.97, 2.83 0.36, 3.36 -0.06 C3.89 -0.47, 3.84 0.59, 3.88 0.64" stroke="#0a11d3" stroke-width="1" fill="none"></path></g><g stroke-linecap="round" transform="translate(162.97282987982635 58.655100188302185) rotate(0 5.405229834227839 5.8663290323312935)"><path d="M6.02 -0.39 C7.09 -0.46, 7.97 0.78, 8.83 1.64 C9.7 2.49, 11.06 3.45, 11.21 4.73 C11.36 6.01, 10.51 8.15, 9.73 9.32 C8.95 10.49, 7.6 11.32, 6.51 11.73 C5.43 12.14, 4.19 12.22, 3.23 11.77 C2.27 11.31, 1.19 10.22, 0.75 9 C0.3 7.78, 0.28 5.82, 0.56 4.46 C0.84 3.1, 1.55 1.52, 2.43 0.83 C3.32 0.13, 5.18 0.41, 5.85 0.29 C6.51 0.16, 6.36 0.02, 6.44 0.07 M4.72 -0.23 C5.83 -0.46, 7.38 0.64, 8.38 1.34 C9.38 2.05, 10.3 2.97, 10.7 3.99 C11.1 5.01, 11.14 6.32, 10.79 7.48 C10.44 8.64, 9.65 10.33, 8.59 10.94 C7.52 11.54, 5.67 11.37, 4.42 11.11 C3.17 10.85, 1.88 10.19, 1.11 9.38 C0.33 8.58, -0.34 7.62, -0.24 6.28 C-0.13 4.94, 0.87 2.37, 1.76 1.36 C2.64 0.36, 4.51 0.49, 5.08 0.26 C5.65 0.04, 5.27 -0.16, 5.18 0.01" stroke="none" stroke-width="0" fill="#fff"></path><path d="M5.92 -0.17 C7.14 -0.29, 8.76 0.57, 9.51 1.41 C10.26 2.26, 10.27 3.61, 10.4 4.88 C10.53 6.16, 10.79 7.93, 10.28 9.07 C9.77 10.21, 8.5 11.39, 7.36 11.71 C6.21 12.03, 4.57 11.47, 3.42 11.01 C2.26 10.56, 1 10.13, 0.42 8.97 C-0.16 7.81, -0.3 5.33, -0.07 4.05 C0.17 2.77, 0.88 1.93, 1.82 1.31 C2.76 0.7, 4.89 0.61, 5.59 0.36 C6.29 0.1, 6.06 -0.24, 6.03 -0.23 M5.75 -0.21 C6.97 -0.37, 8.36 0.82, 9.3 1.58 C10.24 2.33, 11.19 3.03, 11.38 4.3 C11.57 5.58, 11.13 8.08, 10.44 9.22 C9.75 10.35, 8.5 10.73, 7.24 11.12 C5.99 11.52, 3.97 11.88, 2.92 11.6 C1.86 11.32, 1.42 10.45, 0.89 9.44 C0.36 8.42, -0.31 6.91, -0.25 5.52 C-0.2 4.13, 0.32 1.97, 1.23 1.11 C2.14 0.25, 4.61 0.6, 5.21 0.35 C5.8 0.11, 4.62 -0.35, 4.78 -0.36" stroke="#0a11d3" stroke-width="1" fill="none"></path></g><g stroke-linecap="round" transform="translate(162.97282987982635 86.64536586456649) rotate(0 5.405229834227839 5.8663290323312935)"><path d="M6.16 0.17 C7.27 0.31, 9.29 0.73, 10.03 1.74 C10.77 2.74, 10.77 4.84, 10.6 6.21 C10.43 7.58, 9.75 8.96, 9.02 9.95 C8.29 10.94, 7.24 11.92, 6.2 12.15 C5.17 12.39, 3.71 12.11, 2.8 11.37 C1.88 10.63, 1.08 9.03, 0.72 7.71 C0.36 6.39, 0.31 4.55, 0.64 3.43 C0.96 2.31, 1.63 1.57, 2.67 1.01 C3.7 0.44, 6.11 0.16, 6.86 0.04 C7.61 -0.09, 7.28 0.17, 7.18 0.27 M6.2 0.48 C7.32 0.59, 8.71 1.06, 9.54 1.81 C10.37 2.56, 11.06 3.75, 11.19 5 C11.33 6.25, 11.11 8.3, 10.36 9.32 C9.62 10.34, 7.99 10.83, 6.74 11.11 C5.49 11.39, 3.98 11.39, 2.88 11 C1.79 10.61, 0.55 10, 0.17 8.76 C-0.22 7.52, 0.14 4.81, 0.6 3.54 C1.05 2.27, 1.9 1.73, 2.9 1.12 C3.9 0.51, 6.1 -0.05, 6.6 -0.11 C7.09 -0.17, 5.94 0.65, 5.86 0.78" stroke="none" stroke-width="0" fill="#fff"></path><path d="M7.09 -0.02 C8.08 0.17, 8.71 1.05, 9.39 2.1 C10.07 3.14, 11.1 4.89, 11.16 6.23 C11.21 7.57, 10.55 9.27, 9.71 10.15 C8.88 11.02, 7.39 11.28, 6.15 11.46 C4.9 11.63, 3.27 11.95, 2.24 11.22 C1.22 10.48, 0.36 8.3, 0 7.04 C-0.35 5.78, -0.34 4.68, 0.1 3.66 C0.55 2.64, 1.57 1.58, 2.67 0.93 C3.77 0.29, 6.08 -0.07, 6.71 -0.2 C7.33 -0.33, 6.43 0.02, 6.43 0.14 M7.11 0.34 C8.25 0.5, 9.76 0.78, 10.43 1.83 C11.11 2.88, 11.36 5.35, 11.17 6.66 C10.99 7.97, 10.29 8.8, 9.32 9.68 C8.35 10.56, 6.49 11.65, 5.36 11.94 C4.24 12.23, 3.48 12.03, 2.56 11.41 C1.64 10.78, 0.33 9.56, -0.14 8.2 C-0.61 6.83, -0.76 4.44, -0.27 3.24 C0.22 2.03, 1.74 1.53, 2.8 0.94 C3.85 0.35, 5.28 -0.14, 6.06 -0.3 C6.83 -0.46, 7.28 -0.2, 7.45 -0.02" stroke="#0a11d3" stroke-width="1" fill="none"></path></g><g stroke-linecap="round"><g transform="translate(11.369129346659292 145.22053655356189) rotate(0 39.50009683410212 42.8990865043165)" fill-rule="evenodd"><path d="M0.91 1.44 C1.13 14.52, -0.01 65.23, -0.27 79.38 C-0.53 93.53, -0.98 84.91, -0.66 86.34 C-0.34 87.76, -1.35 86.55, 1.63 87.94 C4.62 89.34, 10.83 93.67, 17.24 94.71 C23.64 95.75, 32.31 94.77, 40.07 94.19 C47.83 93.61, 57.95 92.48, 63.77 91.26 C69.6 90.04, 72.62 88.18, 75.02 86.87 C77.42 85.55, 77.25 84.76, 78.18 83.36 C79.1 81.97, 80.74 91.51, 80.57 78.48 C80.4 65.45, 77.52 17.95, 77.15 5.17 C76.78 -7.61, 78.99 3.58, 78.35 1.78 C77.7 -0.01, 75.74 -3.96, 73.26 -5.61 C70.78 -7.26, 69.18 -7.4, 63.45 -8.13 C57.72 -8.86, 46.5 -10.27, 38.88 -10 C31.27 -9.73, 23.91 -7.89, 17.75 -6.53 C11.59 -5.18, 4.74 -2.91, 1.94 -1.87 C-0.85 -0.83, 1.51 -0.71, 0.97 -0.31 C0.44 0.08, -1.17 0.58, -1.25 0.52" stroke="none" stroke-width="0" fill="#e64980" fill-rule="evenodd"></path><path d="M-0.98 0.89 C-1.06 13.87, -0.62 63.22, -0.33 77.2 C-0.04 91.17, -0.02 82.67, 0.76 84.74 C1.54 86.81, 1.29 88.44, 4.33 89.63 C7.38 90.83, 12.81 91.07, 19.01 91.91 C25.21 92.75, 33.87 94.73, 41.52 94.67 C49.17 94.6, 59.08 92.38, 64.89 91.53 C70.69 90.68, 74.05 90.43, 76.35 89.59 C78.64 88.74, 78.06 88.19, 78.64 86.46 C79.21 84.73, 79.64 92.38, 79.79 79.2 C79.94 66.01, 79.61 20.67, 79.53 7.35 C79.45 -5.97, 80.18 1.07, 79.33 -0.72 C78.49 -2.52, 77.25 -2.51, 74.48 -3.44 C71.71 -4.38, 68.61 -5.46, 62.71 -6.33 C56.8 -7.19, 46.48 -8.45, 39.06 -8.65 C31.63 -8.86, 24.09 -8.51, 18.15 -7.57 C12.22 -6.63, 6.3 -4.18, 3.45 -3.03 C0.6 -1.89, 1.55 -1.25, 1.04 -0.7 C0.53 -0.16, 0.41 0.11, 0.39 0.22 M0.71 0.31 C1.02 13.57, 2.13 64.57, 2.08 78.76 C2.03 92.94, -0.05 83.44, 0.39 85.43 C0.83 87.42, 1.79 89.63, 4.72 90.69 C7.65 91.75, 11.64 91.21, 17.96 91.77 C24.27 92.32, 34.69 93.74, 42.62 94.01 C50.54 94.29, 59.5 94.12, 65.5 93.42 C71.49 92.72, 76.08 91.1, 78.59 89.81 C81.1 88.52, 80.76 87.45, 80.54 85.69 C80.32 83.93, 77.35 92.68, 77.29 79.25 C77.24 65.83, 80.02 18.58, 80.21 5.14 C80.39 -8.3, 79.82 0.14, 78.4 -1.37 C76.97 -2.88, 74.37 -3.06, 71.64 -3.92 C68.91 -4.78, 67.33 -5.61, 62.03 -6.53 C56.72 -7.46, 46.98 -9.47, 39.79 -9.48 C32.59 -9.49, 25.13 -7.82, 18.87 -6.6 C12.61 -5.37, 5.32 -3.13, 2.23 -2.14 C-0.86 -1.15, 0.83 -1.14, 0.33 -0.68 C-0.18 -0.23, -0.44 0.18, -0.79 0.59" stroke="#0a11d3" stroke-width="1" fill="none"></path></g></g><mask></mask><g stroke-linecap="round"><g transform="translate(11.985345504600673 203.7528032111361) rotate(0 39.583874392992016 3.9881937629939443)"><path d="M-0.59 0.05 C0.05 0.29, 0.85 1.26, 2.83 2.31 C4.82 3.36, 7.84 5.54, 11.34 6.35 C14.84 7.16, 18.87 6.73, 23.84 7.19 C28.82 7.66, 34.57 9.24, 41.2 9.11 C47.83 8.99, 57.86 7.26, 63.62 6.44 C69.37 5.62, 73.15 5.14, 75.72 4.19 C78.28 3.25, 78.3 1.36, 79 0.76 M1.31 -0.97 C1.94 -0.71, 0.71 1.79, 2.28 3.22 C3.85 4.66, 7.01 6.86, 10.71 7.62 C14.42 8.38, 19.11 7.38, 24.51 7.76 C29.9 8.14, 36.33 9.74, 43.07 9.89 C49.82 10.03, 59.51 9.72, 64.99 8.64 C70.47 7.56, 73.82 4.68, 75.97 3.41 C78.12 2.14, 77.45 1.64, 77.89 1.02" stroke="#0a11d3" stroke-width="1" fill="none"></path></g></g><mask></mask><g stroke-linecap="round"><g transform="translate(11.004811819504312 174.10199239654952) rotate(0 39.583874392992016 3.9881937629939443)"><path d="M0.75 -1.19 C1.24 -0.63, 0.49 2.31, 2.35 3.41 C4.2 4.51, 8.52 4.49, 11.88 5.42 C15.23 6.34, 17.47 8.59, 22.45 8.95 C27.43 9.31, 34.99 7.68, 41.73 7.57 C48.48 7.47, 57.18 8.86, 62.94 8.32 C68.7 7.77, 73.47 5.58, 76.3 4.29 C79.13 3, 79.33 1.2, 79.92 0.56 M-0.32 0.8 C0.09 1.55, -0.44 4, 1.53 4.9 C3.51 5.8, 8.05 5.88, 11.53 6.2 C15 6.51, 17.6 6.55, 22.38 6.78 C27.16 7, 33.3 7.36, 40.23 7.54 C47.16 7.72, 57.85 8.5, 63.96 7.84 C70.06 7.17, 74.3 4.73, 76.85 3.55 C79.41 2.37, 79 1.4, 79.28 0.73" stroke="#0a11d3" stroke-width="1" fill="none"></path></g></g><mask></mask><g stroke-linecap="round" transform="translate(10 138.02643732941937) rotate(0 39.28922333818423 7.945949835183853)"><path d="M38.64 0.16 C46.5 0.07, 57.43 0.91, 63.91 1.94 C70.39 2.96, 75.93 4.69, 77.54 6.29 C79.15 7.9, 77.62 10.02, 73.58 11.57 C69.55 13.12, 61.25 14.99, 53.33 15.6 C45.42 16.2, 34.08 15.77, 26.11 15.18 C18.15 14.59, 9.82 13.56, 5.54 12.07 C1.25 10.58, -0.99 8.03, 0.4 6.26 C1.79 4.48, 7.25 2.46, 13.86 1.43 C20.47 0.41, 35.6 0.32, 40.06 0.1 C44.52 -0.12, 40.69 -0.05, 40.63 0.12 M33.71 -0.57 C41.63 -0.68, 53.75 0.71, 61.01 1.7 C68.26 2.7, 74.73 3.84, 77.25 5.41 C79.76 6.98, 79.29 9.56, 76.09 11.13 C72.88 12.7, 65.61 13.98, 57.99 14.83 C50.38 15.69, 38.64 16.5, 30.41 16.23 C22.19 15.97, 13.73 14.65, 8.64 13.25 C3.56 11.85, -0.44 9.72, -0.09 7.82 C0.27 5.92, 5.14 3.12, 10.76 1.86 C16.37 0.61, 29.78 0.69, 33.62 0.31 C37.47 -0.07, 33.64 -0.46, 33.83 -0.43" stroke="none" stroke-width="0" fill="#fff"></path><path d="M46.07 0.08 C54.05 0.24, 63.33 1.19, 68.82 2.47 C74.31 3.76, 78.81 6, 79.02 7.81 C79.23 9.61, 75.46 11.94, 70.1 13.31 C64.74 14.68, 55.16 15.72, 46.86 16.04 C38.57 16.36, 27.74 16.05, 20.32 15.24 C12.89 14.43, 5.28 12.86, 2.32 11.2 C-0.65 9.55, -0.31 6.95, 2.52 5.32 C5.36 3.69, 11.89 2.32, 19.32 1.42 C26.75 0.52, 42.25 0.08, 47.1 -0.08 C51.96 -0.25, 48.53 0.17, 48.45 0.42 M34.49 0.04 C42.23 -0.27, 52.63 0.5, 59.71 1.48 C66.78 2.47, 74.33 4.26, 76.96 5.95 C79.6 7.64, 78.77 10.1, 75.52 11.62 C72.27 13.15, 64.98 14.51, 57.44 15.1 C49.9 15.69, 38.53 15.46, 30.28 15.17 C22.03 14.88, 13.12 14.61, 7.97 13.37 C2.82 12.13, -0.9 9.57, -0.6 7.73 C-0.3 5.88, 4.15 3.64, 9.79 2.28 C15.44 0.92, 29.28 0.01, 33.28 -0.43 C37.29 -0.87, 33.56 -0.59, 33.83 -0.36" stroke="#0a11d3" stroke-width="1" fill="none"></path></g><g stroke-linecap="round" transform="translate(74.10811015189893 160.05851921858414) rotate(0 5.75821229985695 6.2494230633957955)"><path d="M5.33 0.12 C6.49 -0.03, 8.01 0.44, 9.04 1.22 C10.07 2, 11.18 3.43, 11.52 4.81 C11.86 6.2, 11.7 8.36, 11.06 9.53 C10.43 10.7, 8.91 11.4, 7.72 11.85 C6.54 12.3, 5.12 12.7, 3.94 12.24 C2.77 11.77, 1.29 10.29, 0.66 9.05 C0.03 7.8, -0.1 5.99, 0.16 4.75 C0.42 3.51, 1.24 2.4, 2.2 1.6 C3.16 0.8, 5.23 0.15, 5.9 -0.04 C6.57 -0.22, 6.25 0.32, 6.22 0.47 M5.06 0.65 C6.33 0.36, 7.74 -0.03, 8.81 0.51 C9.88 1.05, 10.99 2.65, 11.48 3.87 C11.97 5.09, 12.26 6.48, 11.77 7.83 C11.27 9.18, 9.53 11.11, 8.5 11.96 C7.47 12.81, 6.78 13.11, 5.61 12.92 C4.44 12.72, 2.34 11.94, 1.49 10.78 C0.64 9.62, 0.65 7.28, 0.52 5.95 C0.38 4.62, 0.08 3.88, 0.67 2.81 C1.25 1.74, 3.39 0, 4.04 -0.47 C4.69 -0.95, 4.4 -0.28, 4.58 -0.05" stroke="none" stroke-width="0" fill="#fff"></path><path d="M4.7 -0.26 C5.88 -0.51, 8.15 0.1, 9.33 0.93 C10.5 1.76, 11.39 3.38, 11.74 4.72 C12.1 6.05, 11.97 7.71, 11.47 8.96 C10.97 10.2, 9.95 11.54, 8.75 12.19 C7.56 12.83, 5.52 13.17, 4.31 12.81 C3.09 12.46, 2.16 11.14, 1.44 10.04 C0.72 8.95, 0.01 7.64, -0.01 6.26 C-0.03 4.88, 0.5 2.78, 1.32 1.75 C2.15 0.72, 4.26 0.25, 4.94 0.06 C5.63 -0.13, 5.41 0.47, 5.41 0.6 M5.54 0.27 C6.66 0.33, 8.97 1.11, 9.93 2.09 C10.9 3.07, 11.23 4.85, 11.31 6.13 C11.38 7.4, 11.16 8.82, 10.4 9.74 C9.64 10.66, 7.93 11.2, 6.73 11.67 C5.54 12.14, 4.36 12.97, 3.24 12.56 C2.13 12.15, 0.6 10.54, 0.02 9.2 C-0.56 7.87, -0.49 5.96, -0.22 4.56 C0.04 3.15, 0.62 1.63, 1.63 0.78 C2.64 -0.08, 5.02 -0.49, 5.83 -0.59 C6.64 -0.68, 6.54 0.07, 6.48 0.21" stroke="#0a11d3" stroke-width="1" fill="none"></path></g><g stroke-linecap="round" transform="translate(74.10811015189893 187.49346296398437) rotate(0 5.75821229985695 6.2494230633957955)"><path d="M5.84 -0.18 C7.1 -0.23, 8.92 0.5, 9.91 1.51 C10.9 2.52, 11.69 4.53, 11.78 5.87 C11.87 7.21, 11.17 8.46, 10.44 9.54 C9.71 10.63, 8.59 12.03, 7.39 12.37 C6.19 12.7, 4.35 12.2, 3.22 11.55 C2.09 10.9, 1.11 9.59, 0.64 8.46 C0.16 7.32, 0.1 5.99, 0.37 4.77 C0.65 3.55, 1.31 1.85, 2.29 1.11 C3.27 0.37, 5.59 0.47, 6.24 0.34 C6.9 0.22, 6.3 0.37, 6.23 0.38 M5.06 0.01 C6.15 -0.38, 7.82 0.26, 8.91 0.88 C9.99 1.5, 11.25 2.44, 11.56 3.74 C11.88 5.04, 11.15 7.31, 10.77 8.69 C10.39 10.06, 10.27 11.33, 9.29 11.99 C8.3 12.65, 6.07 13.02, 4.85 12.64 C3.64 12.26, 2.87 10.7, 1.99 9.72 C1.11 8.73, -0.25 8.05, -0.43 6.72 C-0.62 5.4, 0.02 2.92, 0.88 1.76 C1.74 0.6, 4.01 0.01, 4.73 -0.21 C5.44 -0.44, 5.27 0.26, 5.17 0.4" stroke="none" stroke-width="0" fill="#fff"></path><path d="M6.12 -0.07 C7.43 -0.06, 8.93 0.81, 9.88 1.72 C10.83 2.62, 11.61 4.03, 11.82 5.36 C12.03 6.69, 11.85 8.47, 11.15 9.67 C10.45 10.88, 8.8 12.15, 7.63 12.56 C6.46 12.98, 5.28 12.64, 4.14 12.17 C3 11.71, 1.51 10.96, 0.8 9.77 C0.09 8.57, -0.3 6.37, -0.14 5 C0.02 3.63, 0.74 2.3, 1.77 1.55 C2.8 0.79, 5.35 0.66, 6.03 0.45 C6.72 0.25, 5.88 0.21, 5.88 0.3 M5.96 0.44 C7.19 0.41, 8.36 1.3, 9.24 2.09 C10.11 2.89, 11.08 4.1, 11.21 5.21 C11.34 6.32, 10.65 7.52, 10.04 8.76 C9.42 9.99, 8.63 12.06, 7.5 12.64 C6.37 13.22, 4.41 12.81, 3.23 12.23 C2.06 11.64, 1.08 10.36, 0.45 9.11 C-0.18 7.87, -0.79 6.1, -0.56 4.74 C-0.33 3.37, 0.69 1.7, 1.81 0.92 C2.93 0.15, 5.59 0.28, 6.15 0.08 C6.71 -0.12, 5.24 -0.47, 5.16 -0.27" stroke="#0a11d3" stroke-width="1" fill="none"></path></g><g stroke-linecap="round" transform="translate(74.10811015189893 217.3116015143048) rotate(0 5.75821229985695 6.2494230633957955)"><path d="M6.21 -0.28 C7.5 -0.22, 9.14 0.99, 10.01 1.92 C10.88 2.85, 11.32 3.97, 11.42 5.28 C11.53 6.59, 11.36 8.69, 10.67 9.79 C9.97 10.89, 8.44 11.58, 7.26 11.86 C6.07 12.15, 4.63 11.96, 3.55 11.51 C2.47 11.06, 1.38 10.27, 0.79 9.14 C0.2 8.01, -0.21 6.02, 0.03 4.75 C0.26 3.48, 1.21 2.29, 2.21 1.54 C3.2 0.78, 5.36 0.49, 5.98 0.22 C6.59 -0.04, 5.92 -0.22, 5.88 -0.08 M7.12 0.24 C8.28 0.35, 9.92 0.93, 10.58 2 C11.23 3.07, 11.02 5.22, 11.04 6.66 C11.06 8.1, 11.42 9.65, 10.7 10.63 C9.98 11.62, 7.94 12.52, 6.74 12.58 C5.53 12.64, 4.6 11.63, 3.47 10.99 C2.34 10.35, 0.53 9.97, -0.05 8.73 C-0.64 7.49, -0.52 4.93, -0.02 3.56 C0.48 2.2, 1.76 1.1, 2.97 0.54 C4.18 -0.02, 6.74 0.29, 7.25 0.21 C7.77 0.13, 6.08 -0.11, 6.05 0.06" stroke="none" stroke-width="0" fill="#fff"></path><path d="M5.35 0.39 C6.49 0.17, 8.1 0.48, 9.14 1.18 C10.17 1.88, 11.27 3.3, 11.57 4.6 C11.88 5.9, 11.42 7.78, 10.96 8.97 C10.5 10.16, 9.87 11.12, 8.81 11.74 C7.76 12.36, 5.93 13, 4.64 12.7 C3.34 12.4, 1.87 11.01, 1.06 9.92 C0.25 8.83, -0.3 7.38, -0.22 6.16 C-0.14 4.93, 0.71 3.58, 1.53 2.59 C2.36 1.6, 4.11 0.56, 4.73 0.22 C5.35 -0.12, 5.19 0.52, 5.25 0.55 M6.1 0.71 C7.2 0.69, 8.85 1.22, 9.63 1.96 C10.4 2.7, 10.66 3.76, 10.75 5.17 C10.84 6.57, 10.86 9.19, 10.17 10.39 C9.48 11.58, 7.82 12.17, 6.61 12.37 C5.41 12.56, 4.07 12.24, 2.96 11.58 C1.84 10.91, 0.39 9.63, -0.1 8.38 C-0.59 7.12, -0.5 5.23, 0.01 4.03 C0.51 2.84, 1.97 1.94, 2.93 1.2 C3.89 0.47, 5.2 -0.31, 5.75 -0.37 C6.3 -0.44, 6.16 0.7, 6.23 0.79" stroke="#0a11d3" stroke-width="1" fill="none"></path></g></svg>