<svg version="1.1" xmlns="http://www.w3.org/2000/svg" viewBox="0 0 668.5326061042399 363.3999786376953" width="2005.5978183127197" height="1090.199935913086" filter="invert(93%) hue-rotate(180deg)">
  <!-- svg-source:excalidraw -->
  
  <defs>
    <style class="style-fonts">
      @font-face {
        font-family: "Virgil";
        src: url("https://excalidraw.com/Virgil.woff2");
      }
      @font-face {
        font-family: "Cascadia";
        src: url("https://excalidraw.com/Cascadia.woff2");
      }
      @font-face {
        font-family: "Assistant";
        src: url("https://excalidraw.com/Assistant-Regular.woff2");
      }
    </style>
    
  </defs>
  <g stroke-linecap="round" transform="translate(20.79709546998157 84.5999984741211) rotate(0 241.6000213623047 96.00000762939453)"><path d="M32 0 C150.66 4.76, 269.41 2.38, 451.2 0 M32 0 C177.39 0.25, 321.75 1.08, 451.2 0 M451.2 0 C471.94 -0.51, 482.69 13.58, 483.2 32 M451.2 0 C468.68 0.81, 485.29 8.17, 483.2 32 M483.2 32 C486.28 72.4, 479.4 121.54, 483.2 160 M483.2 32 C486.29 58.14, 487.29 85.69, 483.2 160 M483.2 160 C479.84 183.02, 468.86 191.85, 451.2 192 M483.2 160 C479.22 182.66, 473.68 190.65, 451.2 192 M451.2 192 C364.61 192.73, 282.18 189.86, 32 192 M451.2 192 C355.2 192.85, 261.98 193.59, 32 192 M32 192 C12.34 189.15, 0.49 182.69, 0 160 M32 192 C13.03 187.83, 2.87 179.18, 0 160 M0 160 C2.6 121.24, -1.42 87.04, 0 32 M0 160 C-0.93 111.9, -0.05 65.56, 0 32 M0 32 C-0.63 9.55, 9.28 3.22, 32 0 M0 32 C1.66 14.26, 10.71 4.04, 32 0" stroke="#1e1e1e" stroke-width="2" fill="none"></path></g><g stroke-linecap="round"><g transform="translate(17.197104625255008 151.6000213623047) rotate(0 236.40000915527344 -2.8000030517578125)"><path d="M1.48 -1.85 C79.99 -2.27, 393.46 -2.87, 471.96 -3.91 M-1.15 3.31 C76.81 2.21, 390.66 -6.4, 469.26 -8.01" stroke="#1e1e1e" stroke-width="1" fill="none"></path></g></g><mask></mask><g transform="translate(201.19713514283313 50.80006408691406) rotate(0 27.019973754882812 12.5)"><text x="0" y="17.52" font-family="Virgil, Segoe UI Emoji" font-size="20px" fill="#1e1e1e" text-anchor="start" style="white-space: pre;" direction="ltr" dominant-baseline="alphabetic">Order</text></g><g transform="translate(34.79708021119251 115.60002136230469) rotate(0 44.01995849609375 12.5)"><text x="0" y="17.52" font-family="Virgil, Segoe UI Emoji" font-size="20px" fill="#1e1e1e" text-anchor="start" style="white-space: pre;" direction="ltr" dominant-baseline="alphabetic">username</text></g><g transform="translate(226.79711072877063 114.80003356933594) rotate(0 30.77996826171875 12.5)"><text x="0" y="17.52" font-family="Virgil, Segoe UI Emoji" font-size="20px" fill="#1e1e1e" text-anchor="start" style="white-space: pre;" direction="ltr" dominant-baseline="alphabetic">itemId</text></g><g transform="translate(309.99709241822376 110.800048828125) rotate(0 45.51995849609375 12.5)"><text x="0" y="17.52" font-family="Virgil, Segoe UI Emoji" font-size="20px" fill="#1e1e1e" text-anchor="start" style="white-space: pre;" direction="ltr" dominant-baseline="alphabetic">item.name</text></g><g stroke-linecap="round"><g transform="translate(433.99709241822376 122.80000305175781) rotate(0 112.80000305175781 -2)"><path d="M2.07 -1.02 C39.45 -1.39, 186.82 -1.99, 224.54 -2.51" stroke="#1e1e1e" stroke-width="1.5" fill="none" stroke-dasharray="1.5 7"></path></g></g><mask></mask><g transform="translate(90.79714124634876 292.40000915527344) rotate(0 185.65988159179688 12.5)"><text x="0" y="17.52" font-family="Virgil, Segoe UI Emoji" font-size="20px" fill="#1e1e1e" text-anchor="start" style="white-space: pre;" direction="ltr" dominant-baseline="alphabetic">don't know how many items in advance</text></g><g transform="translate(72.68730613842621 327.6000518798828) rotate(0 222.8595909672976 12.89996337890625)"><text x="0" y="18.080588671875002" font-family="Virgil, Segoe UI Emoji" font-size="20.639941406250003px" fill="#1e1e1e" text-anchor="start" style="white-space: pre;" direction="ltr" dominant-baseline="alphabetic">will have a row for each item in same order</text></g><g stroke-linecap="round"><g transform="translate(67.59706800416126 298.00010681152344) rotate(0 -28.800025939941406 21.39824536463678)"><path d="M1.89 1.58 C-7.66 5.79, -55.56 16.91, -56.15 24.09 C-56.73 31.28, -9.93 41.7, -1.61 44.68 M-0.53 -0.04 C-10.43 3.56, -57.33 13.73, -57.6 20.43 C-57.86 27.14, -10.57 36.22, -2.12 40.17" stroke="#1e1e1e" stroke-width="1" fill="none"></path></g><g transform="translate(67.59706800416126 298.00010681152344) rotate(0 -28.800025939941406 21.39824536463678)"><path d="M-25.95 42.63 C-16.76 42.65, -8.66 38.85, -2.71 39.87 M-27.99 41.27 C-20.5 41.41, -13.63 40.03, -1.96 40.97" stroke="#1e1e1e" stroke-width="1" fill="none"></path></g><g transform="translate(67.59706800416126 298.00010681152344) rotate(0 -28.800025939941406 21.39824536463678)"><path d="M-21.03 26.26 C-13.59 31.9, -7.17 33.71, -2.71 39.87 M-23.07 24.89 C-17.11 29.65, -11.63 32.87, -1.96 40.97" stroke="#1e1e1e" stroke-width="1" fill="none"></path></g></g><mask></mask><g transform="translate(138.79704969361438 114.80001831054688) rotate(0 36.439964294433594 12.5)"><text x="0" y="17.52" font-family="Virgil, Segoe UI Emoji" font-size="20px" fill="#1e1e1e" text-anchor="start" style="white-space: pre;" direction="ltr" dominant-baseline="alphabetic">orderId</text></g><g transform="translate(49.19707410767688 171.59999084472656) rotate(0 26.929969787597656 12.5)"><text x="0" y="17.52" font-family="Virgil, Segoe UI Emoji" font-size="20px" fill="#1e1e1e" text-anchor="start" style="white-space: pre;" direction="ltr" dominant-baseline="alphabetic">peppa</text></g><g transform="translate(52.6670982165636 202.2999725341797) rotate(0 26.929969787597656 12.5)"><text x="0" y="17.52" font-family="Virgil, Segoe UI Emoji" font-size="20px" fill="#1e1e1e" text-anchor="start" style="white-space: pre;" direction="ltr" dominant-baseline="alphabetic">peppa</text></g><g transform="translate(144.7970802111925 173.59999084472656) rotate(0 16.639991760253906 12.5)"><text x="0" y="17.52" font-family="Virgil, Segoe UI Emoji" font-size="20px" fill="#e03131" text-anchor="start" style="white-space: pre;" direction="ltr" dominant-baseline="alphabetic">123</text></g><g transform="translate(149.35707014039173 203.09999084472656) rotate(0 16.639991760253906 12.5)"><text x="0" y="17.52" font-family="Virgil, Segoe UI Emoji" font-size="20px" fill="#e03131" text-anchor="start" style="white-space: pre;" direction="ltr" dominant-baseline="alphabetic">123</text></g><g transform="translate(239.59706800416126 177.1999969482422) rotate(0 12.259994506835938 25)"><text x="0" y="17.52" font-family="Virgil, Segoe UI Emoji" font-size="20px" fill="#1e1e1e" text-anchor="start" style="white-space: pre;" direction="ltr" dominant-baseline="alphabetic">07</text><text x="0" y="42.519999999999996" font-family="Virgil, Segoe UI Emoji" font-size="20px" fill="#1e1e1e" text-anchor="start" style="white-space: pre;" direction="ltr" dominant-baseline="alphabetic">14</text></g><g transform="translate(320.59706800416126 177.59999084472656) rotate(0 25.22997283935547 25)"><text x="0" y="17.52" font-family="Virgil, Segoe UI Emoji" font-size="20px" fill="#1e1e1e" text-anchor="start" style="white-space: pre;" direction="ltr" dominant-baseline="alphabetic">pizza</text><text x="0" y="42.519999999999996" font-family="Virgil, Segoe UI Emoji" font-size="20px" fill="#1e1e1e" text-anchor="start" style="white-space: pre;" direction="ltr" dominant-baseline="alphabetic">fries</text></g><g stroke-linecap="round"><g transform="translate(71.59706800416126 246.7999725341797) rotate(0 0.399993896484375 21.199996948242188)"><path d="M-0.24 -0.89 C-0.26 -1.11, -0.14 -7.59, -0.06 -0.35 C0.02 6.9, 0.15 35.52, 0.26 42.56" stroke="#1e1e1e" stroke-width="1.5" fill="none" stroke-dasharray="8 9"></path></g></g><mask></mask><g stroke-linecap="round"><g transform="translate(161.1875574392779 240.2035696285676) rotate(0 0.399993896484375 21.199996948242188)"><path d="M-0.68 -1.13 C-0.69 -1.18, -0.11 -7.23, 0.02 0.11 C0.15 7.45, 0.03 35.7, 0.11 42.94" stroke="#1e1e1e" stroke-width="1.5" fill="none" stroke-dasharray="8 9"></path></g></g><mask></mask><g stroke-linecap="round"><g transform="translate(594.7970802111925 138.8000030517578) rotate(0 -53.60003662109375 82.39999389648438)"><path d="M-1.66 1.87 C-3.33 18.33, 6.81 68.7, -11.06 96.01 C-28.94 123.31, -93.11 154.28, -108.92 165.68 M2.63 0.41 C0.78 17.46, 4.82 72.07, -12.79 98.77 C-30.4 125.47, -87.71 149.28, -103.01 160.63" stroke="#1e1e1e" stroke-width="1" fill="none"></path></g><g transform="translate(594.7970802111925 138.8000030517578) rotate(0 -53.60003662109375 82.39999389648438)"><path d="M-85.67 142.1 C-92.52 145.14, -94.95 152.33, -103.27 162.55 M-86.5 141.95 C-91.98 148.93, -98.48 155.94, -103.3 160.26" stroke="#1e1e1e" stroke-width="1" fill="none"></path></g><g transform="translate(594.7970802111925 138.8000030517578) rotate(0 -53.60003662109375 82.39999389648438)"><path d="M-77.07 156.89 C-86.04 156, -90.71 159.32, -103.27 162.55 M-77.91 156.73 C-86.55 158.29, -96.19 159.92, -103.3 160.26" stroke="#1e1e1e" stroke-width="1" fill="none"></path></g></g><mask></mask><g stroke-linecap="round" transform="translate(35.59706800416126 165.19996643066406) rotate(0 78 40)"><path d="M59.36 1.8 C70.62 -0.13, 85.15 -0.81, 96.5 0.54 C107.85 1.88, 118.59 5.47, 127.44 9.88 C136.3 14.29, 144.79 21.47, 149.63 27 C154.48 32.52, 157.49 37.4, 156.52 43.04 C155.55 48.68, 150.75 55.22, 143.81 60.85 C136.87 66.48, 125.3 73.85, 114.87 76.83 C104.43 79.82, 93.31 79, 81.18 78.76 C69.05 78.51, 52.96 77.57, 42.08 75.34 C31.2 73.11, 23.05 70.21, 15.92 65.38 C8.8 60.55, 1.52 52.8, -0.66 46.37 C-2.84 39.94, -1.13 32.85, 2.86 26.79 C6.85 20.72, 11.89 14.31, 23.28 9.98 C34.67 5.65, 60.85 2.48, 71.2 0.83 C81.56 -0.82, 84.91 -0.21, 85.4 0.07 M100 -0.58 C111.02 0.51, 123.79 4.46, 132.15 8.85 C140.5 13.24, 146.42 19.17, 150.12 25.77 C153.82 32.37, 155.9 41.94, 154.35 48.47 C152.8 55.01, 148.45 60.77, 140.84 64.99 C133.23 69.21, 120.06 71.22, 108.67 73.78 C97.28 76.34, 84.21 80.05, 72.49 80.35 C60.77 80.64, 48.92 78.7, 38.32 75.55 C27.73 72.4, 15.11 67.25, 8.94 61.46 C2.77 55.67, 2.05 47.06, 1.31 40.8 C0.56 34.54, -0.03 28.8, 4.48 23.9 C8.98 19.01, 18.55 15.23, 28.34 11.43 C38.13 7.63, 51.21 2.91, 63.22 1.1 C75.23 -0.71, 93.84 0.47, 100.42 0.57 C107.01 0.67, 103.03 0.96, 102.72 1.7" stroke="#1971c2" stroke-width="1" fill="none"></path></g><g stroke-linecap="round"><g transform="translate(112.39708631470813 176.3999786376953) rotate(0 -4.79998779296875 -66.79999542236328)"><path d="M-1.28 1.56 C1.41 -10.8, 18.62 -50.67, 14.64 -73.31 C10.66 -95.95, -18.28 -123.91, -25.17 -134.29 M3.22 -0.06 C6.99 -13.22, 25.3 -54.95, 20.3 -76.86 C15.31 -98.78, -18.9 -122.02, -26.74 -131.56" stroke="#1971c2" stroke-width="1" fill="none"></path></g><g transform="translate(112.39708631470813 176.3999786376953) rotate(0 -4.79998779296875 -66.79999542236328)"><path d="M-2.64 -122.71 C-7.51 -123.95, -15.57 -127.47, -28.18 -131.74 M-3.41 -121.13 C-12.39 -125.24, -19.85 -127.7, -26.96 -131.99" stroke="#1971c2" stroke-width="1" fill="none"></path></g><g transform="translate(112.39708631470813 176.3999786376953) rotate(0 -4.79998779296875 -66.79999542236328)"><path d="M-14.33 -110.23 C-16.37 -114.48, -21.56 -121.06, -28.18 -131.74 M-15.11 -108.65 C-20.01 -116.95, -23.45 -123.71, -26.96 -131.99" stroke="#1971c2" stroke-width="1" fill="none"></path></g></g><mask></mask><g transform="translate(31.597068004161258 10) rotate(0 172.079833984375 12.5)"><text x="0" y="17.52" font-family="Virgil, Segoe UI Emoji" font-size="20px" fill="#1971c2" text-anchor="start" style="white-space: pre;" direction="ltr" dominant-baseline="alphabetic">this info is captured multiple times</text></g></svg>