<svg version="1.1" xmlns="http://www.w3.org/2000/svg" viewBox="0 0 551.8836137284733 332.5999755859375" width="1655.6508411854197" height="997.7999267578125" filter="invert(93%) hue-rotate(180deg)">
  <!-- svg-source:excalidraw -->
  
  <defs>
    <style class="style-fonts">
      @font-face {
        font-family: "Virgil";
        src: url("https://excalidraw.com/Virgil.woff2");
      }
      @font-face {
        font-family: "Cascadia";
        src: url("https://excalidraw.com/Cascadia.woff2");
      }
      @font-face {
        font-family: "Assistant";
        src: url("https://excalidraw.com/Assistant-Regular.woff2");
      }
    </style>
    
  </defs>
  <g stroke-linecap="round" transform="translate(76.0038835038639 10) rotate(0 188.40000915527344 105.5999755859375)"><path d="M32 0 C157.19 0.41, 282.68 -0.27, 344.8 0 M32 0 C149.05 4.81, 267.8 3.57, 344.8 0 M344.8 0 C367.53 2.31, 374.02 8.63, 376.8 32 M344.8 0 C362.05 1.81, 380.58 12.18, 376.8 32 M376.8 32 C374.85 65.6, 376.56 103.83, 376.8 179.2 M376.8 32 C373.75 64.49, 376.54 99.04, 376.8 179.2 M376.8 179.2 C377.91 203.1, 362.46 208.99, 344.8 211.2 M376.8 179.2 C372.73 199.76, 368.7 209.81, 344.8 211.2 M344.8 211.2 C269.66 207.86, 197.7 208.06, 32 211.2 M344.8 211.2 C249.22 211.51, 156.18 211.24, 32 211.2 M32 211.2 C9.97 215.04, 3.12 203.16, 0 179.2 M32 211.2 C14.15 208.61, -1.53 204.93, 0 179.2 M0 179.2 C5.65 138.47, 2.33 92.4, 0 32 M0 179.2 C-2.43 124.34, -4.3 67.69, 0 32 M0 32 C1.27 6.98, 14.61 2.05, 32 0 M0 32 C-2.64 7.96, 14.64 -4.17, 32 0" stroke="#1e1e1e" stroke-width="1" fill="none"></path></g><g stroke-linecap="round"><g transform="translate(66.40387740034828 73.19998168945312) rotate(0 190.39999389648438 -0.79998779296875)"><path d="M1.39 2.04 C64.08 1.89, 314.97 -1.99, 378.17 -2.16 M-1.29 0.68 C62.03 1.08, 319.82 1.8, 383.14 1.16" stroke="#1e1e1e" stroke-width="1" fill="none"></path></g></g><mask></mask><g transform="translate(104.0038835038639 35.60003662109375) rotate(0 96.50994873046875 12.5)"><text x="0" y="17.52" font-family="Virgil, Segoe UI Emoji" font-size="20px" fill="#1e1e1e" text-anchor="start" style="white-space: pre;" direction="ltr" dominant-baseline="alphabetic">username   email </text></g><g stroke-linecap="round" transform="translate(49.60388960737953 22) rotate(0 129.20001220703125 31.599990844726562)"><path d="M100.19 0.31 C115.38 -0.81, 137.05 -0.31, 153.4 0.26 C169.74 0.83, 184.37 1.48, 198.25 3.73 C212.13 5.97, 226.95 10.14, 236.67 13.71 C246.39 17.29, 253.13 21.54, 256.58 25.17 C260.03 28.81, 260.61 31.51, 257.36 35.51 C254.11 39.5, 245.78 45.7, 237.07 49.13 C228.36 52.56, 218.54 54.17, 205.12 56.08 C191.7 57.98, 172.75 59.33, 156.55 60.58 C140.35 61.83, 124.19 63.82, 107.92 63.58 C91.64 63.35, 72.91 61.62, 58.88 59.18 C44.86 56.73, 33.39 52.44, 23.77 48.92 C14.14 45.39, 4.82 41.93, 1.13 38.03 C-2.57 34.12, -1.9 29.14, 1.6 25.5 C5.11 21.86, 13.3 19.31, 22.14 16.19 C30.99 13.08, 34.39 9.27, 54.66 6.8 C74.94 4.34, 122.36 1.97, 143.81 1.41 C165.26 0.85, 183.75 2.85, 183.36 3.43 M105.2 -1.32 C120.27 -2.75, 139.82 1.23, 156.17 2.38 C172.51 3.53, 189.86 3.49, 203.27 5.56 C216.68 7.64, 227.46 11.03, 236.61 14.83 C245.75 18.64, 254.91 24.15, 258.15 28.38 C261.39 32.61, 259.82 37.03, 256.05 40.2 C252.27 43.36, 245.13 44.01, 235.51 47.39 C225.88 50.77, 211.76 57.93, 198.3 60.48 C184.84 63.04, 170.73 62.42, 154.75 62.73 C138.76 63.04, 118.96 63.19, 102.4 62.33 C85.84 61.47, 68.67 60.15, 55.39 57.57 C42.12 54.99, 31.69 50.52, 22.76 46.87 C13.84 43.22, 4.82 38.78, 1.83 35.69 C-1.15 32.61, 1.32 31.5, 4.86 28.36 C8.39 25.23, 13.85 21.17, 23.04 16.87 C32.24 12.57, 46.74 4.88, 60.03 2.56 C73.32 0.24, 95.12 3.03, 102.78 2.96 C110.44 2.9, 105.34 2.48, 106.01 2.18" stroke="#e03131" stroke-width="1" fill="none"></path></g><g stroke-linecap="round"><g transform="translate(46.403907917926404 61.20001220703125) rotate(0 -19.20001220703125 103.19998168945312)"><path d="M0.47 1.65 C-5.6 20.18, -35.69 76.62, -35.65 110.51 C-35.62 144.4, -5.15 188.77, 0.69 205 M-2.72 0.08 C-8.98 18.94, -36.8 78.35, -36.4 112.9 C-36 147.44, -6.39 192.39, -0.32 207.34" stroke="#1e1e1e" stroke-width="1" fill="none"></path></g><g transform="translate(46.403907917926404 61.20001220703125) rotate(0 -19.20001220703125 103.19998168945312)"><path d="M-17.4 192.23 C-14.27 196.89, -7.65 201.55, 0.71 208.51 M-17.99 190.48 C-14.13 194.22, -9.68 198.33, 0.55 208.06" stroke="#1e1e1e" stroke-width="1" fill="none"></path></g><g transform="translate(46.403907917926404 61.20001220703125) rotate(0 -19.20001220703125 103.19998168945312)"><path d="M-2.15 184.49 C-4.04 191.71, -2.42 198.9, 0.71 208.51 M-2.75 182.74 C-2.51 188.27, -1.71 194.23, 0.55 208.06" stroke="#1e1e1e" stroke-width="1" fill="none"></path></g></g><mask></mask><g transform="translate(84.80390181441078 247.5999755859375) rotate(0 228.53985595703125 37.5)"><text x="0" y="17.52" font-family="Virgil, Segoe UI Emoji" font-size="20px" fill="#e03131" text-anchor="start" style="white-space: pre;" direction="ltr" dominant-baseline="alphabetic">A -&gt; B : b is functionally dependent on A if </text><text x="0" y="42.519999999999996" font-family="Virgil, Segoe UI Emoji" font-size="20px" fill="#e03131" text-anchor="start" style="white-space: pre;" direction="ltr" dominant-baseline="alphabetic">         every row with same value of A has </text><text x="0" y="67.52" font-family="Virgil, Segoe UI Emoji" font-size="20px" fill="#e03131" text-anchor="start" style="white-space: pre;" direction="ltr" dominant-baseline="alphabetic">         same value of B  </text></g></svg>